<svg width="18" height="18" viewBox="0 0 18 18" fill="none" xmlns="http://www.w3.org/2000/svg">
<path d="M14.6595 13.4655C14.818 13.624 14.907 13.839 14.907 14.0631C14.907 14.2873 14.818 14.5023 14.6595 14.6608C14.5009 14.8193 14.286 14.9084 14.0618 14.9084C13.8376 14.9084 13.6226 14.8193 13.4641 14.6608L9 10.1953L4.53445 14.6594C4.37594 14.8179 4.16096 14.907 3.9368 14.907C3.71263 14.907 3.49765 14.8179 3.33914 14.6594C3.18063 14.5009 3.09158 14.2859 3.09158 14.0617C3.09158 13.8376 3.18063 13.6226 3.33914 13.4641L7.80469 8.99994L3.34055 4.53439C3.18204 4.37588 3.09299 4.1609 3.09299 3.93674C3.09299 3.71257 3.18204 3.49759 3.34055 3.33908C3.49905 3.18057 3.71404 3.09152 3.9382 3.09152C4.16237 3.09152 4.37735 3.18057 4.53586 3.33908L9 7.80463L13.4655 3.33838C13.6241 3.17987 13.839 3.09082 14.0632 3.09082C14.2874 3.09082 14.5023 3.17987 14.6609 3.33838C14.8194 3.49689 14.9084 3.71187 14.9084 3.93603C14.9084 4.1602 14.8194 4.37518 14.6609 4.53369L10.1953 8.99994L14.6595 13.4655Z" fill="#38F5A0"/>
</svg>
