<svg width="15" height="15" viewBox="0 0 15 15" fill="none" xmlns="http://www.w3.org/2000/svg">
<path d="M7.5 4.03846C6.81537 4.03846 6.14612 4.24148 5.57687 4.62184C5.00763 5.00219 4.56395 5.54281 4.30196 6.17533C4.03996 6.80784 3.97141 7.50384 4.10497 8.17531C4.23854 8.84679 4.56822 9.46357 5.05232 9.94768C5.53643 10.4318 6.15321 10.7615 6.82469 10.895C7.49616 11.0286 8.19216 10.96 8.82467 10.698C9.45719 10.436 9.9978 9.99238 10.3782 9.42313C10.7585 8.85388 10.9615 8.18463 10.9615 7.5C10.9606 6.58224 10.5956 5.70233 9.94662 5.05338C9.29767 4.40442 8.41776 4.03942 7.5 4.03846ZM7.5 9.80769C7.04358 9.80769 6.59741 9.67235 6.21792 9.41878C5.83842 9.1652 5.54263 8.80479 5.36797 8.38311C5.19331 7.96144 5.14761 7.49744 5.23665 7.04979C5.32569 6.60214 5.54548 6.19095 5.86822 5.86822C6.19095 5.54548 6.60214 5.32569 7.04979 5.23665C7.49744 5.14761 7.96144 5.19331 8.38311 5.36797C8.80479 5.54263 9.1652 5.83842 9.41878 6.21792C9.67235 6.59741 9.80769 7.04358 9.80769 7.5C9.80769 8.11204 9.56456 8.69901 9.13178 9.13178C8.69901 9.56456 8.11204 9.80769 7.5 9.80769ZM10.9615 0H4.03846C2.96775 0.00114535 1.94121 0.426993 1.1841 1.1841C0.426993 1.94121 0.00114535 2.96775 0 4.03846V10.9615C0.00114535 12.0323 0.426993 13.0588 1.1841 13.8159C1.94121 14.573 2.96775 14.9989 4.03846 15H10.9615C12.0323 14.9989 13.0588 14.573 13.8159 13.8159C14.573 13.0588 14.9989 12.0323 15 10.9615V4.03846C14.9989 2.96775 14.573 1.94121 13.8159 1.1841C13.0588 0.426993 12.0323 0.00114535 10.9615 0ZM13.8462 10.9615C13.8462 11.7266 13.5422 12.4603 13.0013 13.0013C12.4603 13.5422 11.7266 13.8462 10.9615 13.8462H4.03846C3.27341 13.8462 2.5397 13.5422 1.99873 13.0013C1.45776 12.4603 1.15385 11.7266 1.15385 10.9615V4.03846C1.15385 3.27341 1.45776 2.5397 1.99873 1.99873C2.5397 1.45776 3.27341 1.15385 4.03846 1.15385H10.9615C11.7266 1.15385 12.4603 1.45776 13.0013 1.99873C13.5422 2.5397 13.8462 3.27341 13.8462 4.03846V10.9615ZM12.1154 3.75C12.1154 3.92116 12.0646 4.08847 11.9695 4.23078C11.8745 4.37309 11.7393 4.48401 11.5812 4.54951C11.423 4.61501 11.249 4.63215 11.0812 4.59876C10.9133 4.56537 10.7591 4.48295 10.6381 4.36192C10.5171 4.24089 10.4346 4.0867 10.4012 3.91883C10.3679 3.75096 10.385 3.57696 10.4505 3.41883C10.516 3.2607 10.6269 3.12555 10.7692 3.03046C10.9115 2.93537 11.0788 2.88462 11.25 2.88462C11.4795 2.88462 11.6996 2.97579 11.8619 3.13808C12.0242 3.30037 12.1154 3.52049 12.1154 3.75Z" fill="#38F5A0"/>
</svg>
