<svg width="14" height="14" viewBox="0 0 14 14" fill="none" xmlns="http://www.w3.org/2000/svg">
<path d="M11.0833 2.33333H0.583333C0.428624 2.33333 0.280251 2.39479 0.170854 2.50419C0.0614583 2.61358 0 2.76196 0 2.91667V13.4167C0 13.5714 0.0614583 13.7197 0.170854 13.8291C0.280251 13.9385 0.428624 14 0.583333 14H11.0833C11.238 14 11.3864 13.9385 11.4958 13.8291C11.6052 13.7197 11.6667 13.5714 11.6667 13.4167V2.91667C11.6667 2.76196 11.6052 2.61358 11.4958 2.50419C11.3864 2.39479 11.238 2.33333 11.0833 2.33333ZM10.5 12.8333H1.16667V3.5H10.5V12.8333ZM14 0.583333V11.0833C14 11.238 13.9385 11.3864 13.8291 11.4958C13.7197 11.6052 13.5714 11.6667 13.4167 11.6667C13.262 11.6667 13.1136 11.6052 13.0042 11.4958C12.8948 11.3864 12.8333 11.238 12.8333 11.0833V1.16667H2.91667C2.76196 1.16667 2.61358 1.10521 2.50419 0.995812C2.39479 0.886416 2.33333 0.738043 2.33333 0.583333C2.33333 0.428624 2.39479 0.280251 2.50419 0.170854C2.61358 0.0614583 2.76196 0 2.91667 0H13.4167C13.5714 0 13.7197 0.0614583 13.8291 0.170854C13.9385 0.280251 14 0.428624 14 0.583333Z" fill="#38F5A0"/>
</svg>
