<svg width="38" height="28" viewBox="0 0 38 28" fill="none" xmlns="http://www.w3.org/2000/svg">
<path d="M17.7716 0L19.1638 3.86207C12.2026 6.67816 7.45259 10.4598 5.40517 17.0575C6.06034 16.8966 6.79741 16.8161 7.45259 16.8161C10.6466 16.8161 12.694 18.5862 12.694 21.5632C12.694 25.1839 9.74569 28 5.81466 28C2.04741 28 0 25.5057 0 21.0805C0 12.4713 7.94396 3.45977 17.7716 0ZM36.6078 0L38 3.86207C31.0388 6.67816 26.2888 10.4598 24.2414 17.0575C24.8966 16.8966 25.6336 16.8161 26.2888 16.8161C29.4828 16.8161 31.5302 18.5862 31.5302 21.5632C31.5302 25.1839 28.5819 28 24.6509 28C20.8836 28 18.8362 25.5057 18.8362 21.0805C18.8362 12.4713 26.7802 3.45977 36.6078 0Z" fill="black" fill-opacity="0.27"/>
</svg>
