<svg width="32" height="32" viewBox="0 0 32 32" fill="none" xmlns="http://www.w3.org/2000/svg">
<path d="M24.7625 7.82418C24.0391 6.09699 22.8214 4.6221 21.2624 3.58482C19.7034 2.54754 17.8726 1.99414 16 1.99414C14.1275 1.99414 12.2967 2.54754 10.7376 3.58482C9.17862 4.6221 7.96092 6.09699 7.23753 7.82418C5.67529 8.53823 4.35111 9.68611 3.42258 11.1312C2.49405 12.5763 2.00028 14.2577 2.00003 15.9754C1.98753 20.7504 6.00003 24.8754 10.7675 25.0004C12.2339 25.0358 13.6868 24.7127 15 24.0592V29.0004C15 29.2656 15.1054 29.52 15.2929 29.7075C15.4805 29.8951 15.7348 30.0004 16 30.0004C16.2652 30.0004 16.5196 29.8951 16.7071 29.7075C16.8947 29.52 17 29.2656 17 29.0004V24.0592C18.2432 24.6765 19.612 24.9986 21 25.0004H21.2275C26 24.8754 30.0138 20.7504 30 15.9754C29.9998 14.2577 29.506 12.5763 28.5775 11.1312C27.649 9.68611 26.3248 8.53823 24.7625 7.82418ZM21.1813 23.0004C19.69 23.0393 18.2253 22.6014 17 21.7504V16.6254L22.4475 13.9029C22.5651 13.8442 22.6699 13.7628 22.756 13.6636C22.8421 13.5643 22.9078 13.449 22.9493 13.3244C22.9909 13.1997 23.0075 13.0681 22.9982 12.937C22.9888 12.8059 22.9538 12.678 22.895 12.5604C22.8363 12.4429 22.7549 12.3381 22.6557 12.252C22.5564 12.1659 22.4411 12.1002 22.3165 12.0586C22.1918 12.0171 22.0602 12.0005 21.9291 12.0098C21.798 12.0191 21.6701 12.0542 21.5525 12.1129L17 14.3829V11.0004C17 10.7352 16.8947 10.4809 16.7071 10.2933C16.5196 10.1058 16.2652 10.0004 16 10.0004C15.7348 10.0004 15.4805 10.1058 15.2929 10.2933C15.1054 10.4809 15 10.7352 15 11.0004V17.3829L10.4475 15.1054C10.2102 14.9867 9.93537 14.9672 9.6836 15.0511C9.43183 15.1351 9.22371 15.3156 9.10503 15.5529C8.98635 15.7903 8.96682 16.0651 9.05074 16.3169C9.13466 16.5686 9.31516 16.7767 9.55253 16.8954L15 19.6179V21.7429C13.7751 22.5945 12.3101 23.0325 10.8188 22.9929C7.11253 22.9042 3.99003 19.6904 4.00003 15.9804C3.99908 14.5852 4.41684 13.2217 5.19927 12.0664C5.98169 10.9112 7.09277 10.0173 8.38878 9.50043C8.51879 9.44823 8.63638 9.36928 8.73393 9.26872C8.83148 9.16816 8.9068 9.04822 8.95503 8.91668C9.48251 7.47217 10.4413 6.22472 11.7014 5.34333C12.9616 4.46194 14.4622 3.98922 16 3.98922C17.5378 3.98922 19.0385 4.46194 20.2986 5.34333C21.5588 6.22472 22.5176 7.47217 23.045 8.91668C23.0933 9.04822 23.1686 9.16816 23.2661 9.26872C23.3637 9.36928 23.4813 9.44823 23.6113 9.50043C24.9071 10.0176 26.018 10.9116 26.8004 12.0667C27.5827 13.2219 28.0006 14.5852 28 15.9804C28.01 19.6904 24.8875 22.9042 21.1813 23.0004Z" fill="#38F5A0"/>
</svg>
