<svg width="18" height="21" viewBox="0 0 18 21" fill="none" xmlns="http://www.w3.org/2000/svg">
<path d="M14.4376 3.58C15.5626 3.525 16.6876 3.465 17.9226 3.405V13.895H14.4626L14.5026 13.94C14.4476 12.83 14.3926 11.72 14.3226 10.31H3.5376L3.5876 10.345V6.94H14.4726V3.535L14.4326 3.575L14.4376 3.58Z" fill="white"/>
<path d="M14.4773 3.54H3.71729V0H14.4423C14.4423 1.235 14.4423 2.41 14.4423 3.585L14.4823 3.545L14.4773 3.54Z" fill="white"/>
<path d="M10.8175 17.48V20.96H3.59248V17.48L3.54248 17.525C5.98248 17.525 8.42248 17.525 10.8625 17.525L10.8125 17.48H10.8175Z" fill="white"/>
<path d="M3.59262 17.48H0.00762219C0.00762219 15.31 -0.0273777 13.275 0.0526223 11.25C0.0626223 10.97 0.622621 10.54 0.982621 10.485C1.83762 10.345 2.72262 10.385 3.59262 10.355L3.54262 10.32C3.54262 12.725 3.54262 15.125 3.54262 17.53L3.59262 17.485V17.48Z" fill="white"/>
<path d="M14.4674 13.895V17.48H10.8174L10.8674 17.525V13.945H14.5074L14.4674 13.9V13.895Z" fill="white"/>
</svg>
