<svg width="20" height="22" viewBox="0 0 20 22" fill="none" xmlns="http://www.w3.org/2000/svg">
<path d="M19.29 20.74C18.635 20.975 18.065 21.165 17.57 21.31C17.075 21.455 16.52 21.53 15.895 21.53C14.81 21.53 13.95 21.275 13.3 20.77C12.655 20.265 12.24 19.525 12.06 18.55H11.935C11.03 19.55 10.065 20.315 9.03 20.84C7.995 21.365 6.75 21.63 5.29 21.63C3.75 21.63 2.48 21.16 1.49 20.215C0.495002 19.27 0 18.035 0 16.51C0 15.72 0.109999 15.01 0.334999 14.385C0.554999 13.76 0.889999 13.2 1.335 12.7C1.68 12.285 2.14 11.91 2.71 11.585C3.28 11.26 3.815 11 4.315 10.805C4.94 10.57 6.205 10.13 8.115 9.49501C10.025 8.85501 11.31 8.35501 11.98 7.99501V5.935C11.98 5.755 11.94 5.405 11.865 4.895C11.79 4.38 11.625 3.895 11.375 3.435C11.095 2.92 10.705 2.47501 10.2 2.09001C9.695 1.71001 8.975 1.515 8.045 1.515C7.405 1.515 6.815 1.62501 6.265 1.84001C5.715 2.05501 5.33 2.28 5.11 2.515C5.11 2.795 5.175 3.20001 5.31 3.74501C5.44 4.28501 5.51 4.78501 5.51 5.24501C5.51 5.73001 5.29 6.175 4.855 6.58C4.42 6.985 3.81 7.185 3.035 7.185C2.34 7.185 1.83 6.94001 1.505 6.44501C1.18 5.95501 1.015 5.40001 1.015 4.79001C1.015 4.18001 1.24 3.54 1.69 2.955C2.14 2.37 2.73 1.85 3.45 1.395C4.075 1.005 4.83 0.674999 5.72 0.404999C6.61 0.134999 7.475 0 8.325 0C9.49 0 10.51 0.0800055 11.375 0.240005C12.24 0.400005 13.03 0.745004 13.74 1.27C14.45 1.785 14.985 2.48001 15.355 3.36501C15.725 4.24501 15.905 5.38 15.905 6.77C15.905 8.755 15.885 10.515 15.845 12.05C15.805 13.585 15.785 15.26 15.785 17.08C15.785 17.62 15.88 18.05 16.065 18.37C16.25 18.69 16.54 18.96 16.93 19.18C17.14 19.305 17.47 19.375 17.92 19.39C18.37 19.405 18.835 19.41 19.305 19.41V20.745L19.29 20.74ZM12.025 9.74501C10.845 10.095 9.81 10.435 8.92 10.77C8.03 11.105 7.205 11.52 6.44 12.02C5.745 12.495 5.195 13.055 4.795 13.7C4.39 14.345 4.19 15.115 4.19 16.005C4.19 17.16 4.49 18.01 5.095 18.55C5.7 19.095 6.465 19.365 7.395 19.365C8.38 19.365 9.25 19.125 10 18.645C10.75 18.165 11.38 17.6 11.895 16.945L12.02 9.74501H12.025Z" fill="white"/>
</svg>
