<svg width="236" height="65" viewBox="0 0 236 65" fill="none" xmlns="http://www.w3.org/2000/svg">
<path d="M147.546 5.96389C147.527 3.57057 144.805 2.00547 142.461 1.97502C138.496 1.9263 129.538 1.9263 125.768 1.97502C123.442 2.00547 121.907 3.59492 121.865 6.0187C121.834 7.65078 121.852 11.0916 121.859 12.5653C121.871 15.1352 123.144 16.5968 125.555 16.8282V19.3129C125.519 19.3129 125.476 19.319 125.439 19.3251C123.418 19.5139 122.078 20.8049 121.944 22.6989C121.852 24.0082 121.859 24.5319 121.871 25.3175C121.871 25.689 121.883 26.1214 121.877 26.7243C121.877 26.907 121.944 27.0653 122.096 27.2054L122.248 27.3881H128.545V21.7854H132.181C136.279 21.7854 139.598 21.7854 142.083 21.7854C144.793 21.7793 147.546 19.0389 147.558 16.3532C147.558 14.3009 147.576 9.17325 147.558 5.95779L147.546 5.96389ZM141.456 6.87128V15.7016H128.503V6.87128H141.456Z" fill="black"/>
<path d="M48.5366 17.3827V14.5204H51.3988V4.79487H48.5366V1.93262H29.4996V27.3822H33.5007V17.3705H41.6672V20.2327H44.5295V24.52H47.3917V27.3822H51.3928V23.3812H48.5305V19.0939H45.6683V17.3766H48.5305L48.5366 17.3827ZM47.3978 13.3816H33.5129V5.94586H47.3978V13.3816Z" fill="black"/>
<path d="M114.794 19.7086C114.539 19.6355 114.289 19.5746 114.051 19.5076C113.54 19.3736 113.053 19.2457 112.59 19.0935C111.421 18.7037 111 19.599 110.866 19.8974C110.452 20.7926 109.965 21.7243 109.417 22.6682C108.96 23.4538 108.607 23.2894 108.418 23.2042C108.254 23.125 108.108 23.058 108.394 22.3089C108.881 21.0362 109.429 19.7695 110.026 18.5515C110.495 17.5893 110.988 16.6393 111.481 15.6892C112.304 14.0937 113.156 12.4433 113.905 10.7686C114.429 9.58718 114.758 8.14389 114.819 6.70668C114.874 5.38517 114.411 4.13674 113.503 3.19281C112.547 2.19407 111.183 1.62771 109.752 1.62162C107.797 1.62162 106.147 2.52292 104.752 3.36941C104.326 3.62519 103.906 3.89315 103.485 4.1672L103.461 4.17937C103.333 3.91141 103.218 3.65565 103.077 3.40596C101.458 0.440188 98.2908 -0.741254 95.191 0.470633C94.0279 0.927374 93.1327 1.48764 92.5237 2.15144C90.9951 3.80788 89.9598 5.14767 89.1621 6.49962C86.5556 10.9209 85.0636 16.1338 84.6129 22.449C84.5459 23.4112 84.5642 24.3856 84.5825 25.3295C84.5886 25.7619 84.6007 26.1882 84.6007 26.6206V27.2052H88.754L88.7967 26.6632C88.8576 25.9202 88.9063 25.1895 88.955 24.4587C89.0646 22.8327 89.1682 21.298 89.3752 19.7573C90.0512 14.6905 91.6102 10.5068 94.1314 6.95636C94.7648 6.06115 95.6904 5.2451 96.6648 4.71528C97.2251 4.41079 97.7366 4.33771 98.1873 4.49604C98.6866 4.67265 99.1068 5.14158 99.3991 5.85409C99.46 6.00025 99.5088 6.15249 99.5575 6.30474C99.6306 6.52398 99.7036 6.74321 99.795 6.95027C99.8924 7.1695 99.8985 7.2913 99.5879 7.69323C99.253 8.12561 98.912 8.5519 98.5709 8.98428C97.1703 10.7564 95.727 12.5895 94.4663 14.52C92.7064 17.2239 91.7746 19.8304 91.6345 22.4856C91.5128 24.7327 92.2679 26.2308 93.9365 27.0712C95.9036 28.0578 97.8645 27.8386 99.454 26.444C100.227 25.768 100.934 24.885 101.494 23.8923C103.766 19.8791 104.819 15.3665 104.624 10.4702C104.569 9.12435 104.917 8.40574 105.909 7.82112C106.202 7.64451 106.488 7.46182 106.774 7.27913C107.212 6.99899 107.633 6.73104 108.071 6.49962C108.388 6.3291 108.784 6.2134 109.216 6.15859C109.514 6.12205 109.922 6.12205 110.16 6.34737C110.391 6.5727 110.416 6.97462 110.391 7.26693C110.349 7.8272 110.233 8.36312 110.05 8.81986C109.703 9.7029 109.283 10.6346 108.759 11.6699C108.309 12.559 107.846 13.436 107.383 14.319C106.439 16.1034 105.465 17.9486 104.636 19.8304C104.155 20.9144 103.936 22.248 103.942 24.0324C103.942 25.902 105.319 27.3635 107.353 27.668C107.608 27.7046 107.858 27.7229 108.108 27.7229C109.186 27.7229 110.197 27.3636 111.122 26.651C112.967 25.2321 114.271 23.2712 115.215 20.4698L115.416 19.8791L114.819 19.7147L114.794 19.7086ZM97.3347 22.2785C96.8536 23.0641 96.3542 23.3442 96.1776 23.2407C95.7635 23.0032 95.7696 22.7231 95.9888 21.8705L96.0193 21.7609C96.7379 18.923 98.3334 16.4931 99.9411 14.1607C99.6793 17.1874 98.8206 19.8547 97.3347 22.2785Z" fill="black"/>
<path d="M179.445 5.73857C179.414 5.0565 179.378 4.37443 179.359 3.68627C179.347 3.11991 179.359 2.54746 179.359 1.93848H204.029V5.68376C203.798 5.68376 203.573 5.68376 203.353 5.68376C195.607 5.68376 187.855 5.68376 180.108 5.68376C179.883 5.68376 179.664 5.70812 179.432 5.7203L179.438 5.72637L179.445 5.73857Z" fill="black"/>
<path d="M179.432 23.6059C179.658 23.6242 179.877 23.6547 180.102 23.6547C187.849 23.6547 195.595 23.6547 203.335 23.6547H204.042V27.3938H179.438V23.5938H179.432V23.6059Z" fill="black"/>
<path d="M179.433 16.6214C179.433 15.3182 179.433 14.0149 179.433 12.7178H179.427C179.646 12.7482 179.871 12.7908 180.09 12.7908C187.837 12.7908 195.583 12.7908 203.335 12.7908H204.036V16.5361C203.798 16.5361 203.567 16.5361 203.329 16.5361C195.601 16.5361 187.873 16.5361 180.145 16.5361C179.908 16.5361 179.67 16.5849 179.427 16.6092V16.6153L179.433 16.6214Z" fill="black"/>
<path d="M179.445 23.6001H174.993V16.6211C175.352 16.6211 175.718 16.6211 176.083 16.6211C177.204 16.6333 178.318 16.6455 179.439 16.6576C179.414 16.7307 179.372 16.8038 179.372 16.8769C179.372 19.0449 179.372 21.2189 179.372 23.3869C179.372 23.46 179.414 23.5331 179.439 23.6062H179.445V23.6001Z" fill="black"/>
<path d="M179.439 12.6746C178.616 12.6868 177.788 12.699 176.966 12.7112C176.321 12.7112 175.675 12.7112 174.993 12.7112V5.73828C176.503 5.73828 177.977 5.73828 179.451 5.73828C179.451 5.73828 179.439 5.73828 179.445 5.73828C179.42 5.81745 179.372 5.89053 179.372 5.9636C179.372 8.12551 179.372 10.2874 179.372 12.4493C179.372 12.5285 179.414 12.6016 179.439 12.6807H179.445L179.439 12.6746Z" fill="black"/>
<path d="M234.04 22.212C232.256 21.3777 229.728 20.5312 227.28 19.7152C225.934 19.2645 224.564 18.8078 223.316 18.3571H227.658C228.766 18.3571 229.795 18.1744 230.794 17.803C234.393 16.4632 236.616 12.4743 235.849 8.72294C235.039 4.75842 231.775 2.08496 227.731 2.08496C225.794 2.08496 219.942 2.08496 216.605 2.08496H210.186V27.4371H215.21V21.2498L235.112 28.1801V25.4275C235.112 24.9281 235.106 24.447 235.112 23.972C235.13 23.1803 234.746 22.5591 234.028 22.2181L234.04 22.212ZM229.107 13.3147C228.724 13.5035 228.297 13.6009 227.847 13.6009C225.861 13.6009 218.072 13.6009 216.093 13.6009H215.228V6.81071H216.02C218.121 6.81071 221.86 6.81071 222.329 6.81071C223.955 6.8168 225.8 6.82898 227.627 6.79853H227.688C229.643 6.79853 230.818 8.37581 230.94 9.86174C231.056 11.3416 230.337 12.6874 229.107 13.3025V13.3147Z" fill="black"/>
<path d="M81.0565 12.6749H73.0239L78.6754 7.02962L75.9166 4.2709L70.3079 9.87968V1.93848H66.3494V9.87968L60.7772 4.30744L57.9332 7.1514L63.4933 12.7176H55.6373V16.6516H63.5785L58.0002 22.23L60.8442 25.08L66.3921 19.5321V27.3942H70.3139V19.3555L75.9227 24.9704L78.7119 22.1812L73.164 16.6334H81.0565V12.6749Z" fill="#8A38F5"/>
<path d="M158.483 6.45107H150.767L151.693 1.93848H172.21L171.284 6.45107H163.495L159.062 27.3942H154.05L158.483 6.45107Z" fill="black"/>
<path d="M0.00608886 1.95652C0.347122 1.95652 10.2675 1.96261 17.9591 1.94434C19.4693 1.94434 24.6275 6.97457 24.6214 7.72363C24.6153 8.96596 24.6214 12.285 24.6214 12.7234C24.6214 13.1984 22.6665 15.3299 19.7921 17.6258C19.2318 18.0703 18.7751 18.3627 18.0504 18.3566C12.5573 18.3322 13.0445 18.3444 7.55145 18.3444C7.2226 18.3444 6.89374 18.3444 6.45527 18.3444V27.4H0V1.9626L0.00608886 1.95652ZM18.0687 7.59574H6.51008V12.7234H18.0687V7.59574Z" fill="black"/>
<path d="M0.00608886 37.1623H5.20076V47.2715H29.2862V37.2111H34.6575V62.4293H29.475V52.4358H5.31647V62.3988H0V37.1562L0.00608886 37.1623Z" fill="black"/>
<path d="M127.979 57.2159V47.0884H130.391V42.0216H132.802V39.4882H137.632V42.0216H135.22V47.0884H132.808V52.1552H137.638V54.6886H132.808V57.222H135.22V59.7554H142.461V62.2887H132.808V59.7554H130.397V57.222H127.985L127.979 57.2159ZM144.879 47.0884V39.4943H137.638V36.9609H147.29V39.4943H149.702V47.0884H147.29V49.6218H142.461V47.0884H144.872H144.879ZM142.467 49.6157V52.1491H137.638V49.6157H142.467ZM147.29 57.2159V59.7493H142.461V57.2159H147.29ZM149.708 54.6825V57.2159H147.296V54.6825H149.708Z" fill="black"/>
<path d="M92.1095 52.3193C91.6101 52.3193 91.1169 52.3193 90.6236 52.3132C90.2095 52.301 89.497 52.4228 89.229 53.3424C88.6931 55.1815 87.7126 56.7101 86.318 57.8794C84.01 59.8159 81.4157 60.4797 78.6082 59.8403C74.5463 58.9207 71.5927 55.3338 71.4161 51.1135C71.3065 48.4766 72.0738 46.2233 73.7607 44.2258C76.5438 40.9251 81.4096 40.1395 85.0757 42.3989C86.6225 43.355 87.7796 44.6095 88.5956 46.2416C88.7174 46.4791 89.0707 47.0394 89.7162 47.0637C90.3374 47.082 90.9585 47.082 91.5858 47.0759H93.5163L93.0778 45.7788C91.4214 40.8399 85.7334 36.1689 78.4682 37.2407C71.4648 38.2699 66.5442 44.4085 67.0192 51.5093C67.4942 58.6771 73.3588 64.0971 80.4839 64.0971C80.6788 64.0971 80.8798 64.0971 81.0746 64.085C88.0719 63.7926 92.7855 58.397 93.6685 53.4703L93.8756 52.3132H92.0973L92.1095 52.3193Z" fill="black"/>
<path d="M64.0413 62.1612C63.2435 62.4475 62.5493 62.6789 61.9464 62.8555C61.3435 63.0321 60.6675 63.1234 59.9062 63.1234C58.5847 63.1234 57.5373 62.8128 56.7456 62.1978C55.96 61.5827 55.4545 60.6814 55.2353 59.4939H55.0831C53.9808 60.7118 52.8054 61.6436 51.5448 62.283C50.2842 62.9225 48.7678 63.2452 46.9896 63.2452C45.1139 63.2452 43.5671 62.6728 42.3613 61.5218C41.1494 60.3708 40.5465 58.8666 40.5465 57.0092C40.5465 56.047 40.6805 55.1822 40.9545 54.421C41.2225 53.6598 41.6305 52.9777 42.1725 52.3687C42.5927 51.8632 43.153 51.4065 43.8472 51.0107C44.5415 50.6148 45.1931 50.2981 45.8021 50.0606C46.5633 49.7744 48.1041 49.2385 50.4304 48.4651C52.7567 47.6856 54.3218 47.0766 55.1379 46.6381V44.1291C55.1379 43.9098 55.0891 43.4836 54.9978 42.8624C54.9065 42.2351 54.7055 41.6444 54.401 41.0841C54.06 40.4569 53.5849 39.9149 52.9699 39.446C52.3548 38.9831 51.4778 38.7456 50.3451 38.7456C49.5656 38.7456 48.847 38.8796 48.1771 39.1415C47.5072 39.4033 47.0383 39.6774 46.7704 39.9636C46.7704 40.3046 46.8495 40.7979 47.014 41.4617C47.1723 42.1194 47.2576 42.7284 47.2576 43.2887C47.2576 43.8794 46.9896 44.4214 46.4598 44.9147C45.93 45.408 45.187 45.6515 44.2431 45.6515C43.3966 45.6515 42.7754 45.3532 42.3796 44.7503C41.9837 44.1534 41.7828 43.4775 41.7828 42.7345C41.7828 41.9915 42.0568 41.212 42.6049 40.4995C43.153 39.787 43.8716 39.1537 44.7485 38.5995C45.5098 38.1245 46.4293 37.7225 47.5133 37.3937C48.5973 37.0648 49.6509 36.9004 50.6862 36.9004C52.1051 36.9004 53.3474 36.9978 54.401 37.1927C55.4545 37.3876 56.4167 37.8078 57.2815 38.4472C58.1463 39.0745 58.7979 39.921 59.2485 40.9989C59.6992 42.0707 59.9184 43.4531 59.9184 45.1461C59.9184 47.5638 59.8941 49.7074 59.8453 51.577C59.7966 53.4466 59.7723 55.4867 59.7723 57.7034C59.7723 58.3611 59.888 58.8849 60.1133 59.2746C60.3386 59.6644 60.6918 59.9932 61.1668 60.2612C61.4226 60.4134 61.8246 60.4987 62.3726 60.517C62.9207 60.5352 63.4871 60.5413 64.0595 60.5413V62.1673L64.0413 62.1612ZM55.1927 48.7696C53.7555 49.1959 52.4949 49.61 51.4109 50.018C50.3269 50.426 49.322 50.9315 48.3903 51.5405C47.5438 52.119 46.8739 52.8011 46.3867 53.5867C45.8934 54.3723 45.6498 55.3101 45.6498 56.3941C45.6498 57.8009 46.0152 58.8361 46.7521 59.4939C47.489 60.1577 48.4207 60.4865 49.5534 60.4865C50.7532 60.4865 51.8128 60.1942 52.7263 59.6096C53.6398 59.0249 54.4071 58.3368 55.0343 57.539L55.1866 48.7696H55.1927Z" fill="black"/>
<path d="M108.059 61.8689H110.696V62.4292H97.505V61.8689H100.319V39.0075L97.1884 37.1074H111.183L108.053 39.0075V61.8689H108.059ZM126.663 61.8689V62.4292H116.006L108.412 50.2981L117.589 38.9709L114.459 37.1074H125.47L113.686 44.7015L124.903 61.8628H126.663V61.8689Z" fill="black"/>
<path d="M165.45 52.7036H159.987V62.6362H154.817V37.3145H167.24C169.012 37.351 170.382 37.5641 171.339 37.9661C172.295 38.368 173.105 38.9587 173.768 39.7382C174.317 40.3777 174.755 41.0902 175.072 41.8697C175.388 42.6492 175.553 43.5383 175.553 44.5309C175.553 45.7307 175.248 46.9182 174.639 48.0814C174.03 49.2445 173.032 50.0667 171.631 50.5478C172.8 51.0167 173.628 51.6866 174.116 52.5513C174.603 53.4161 174.846 54.7376 174.846 56.5098V58.2088C174.846 59.3659 174.895 60.1515 174.986 60.5595C175.127 61.2111 175.443 61.6922 175.949 62.0028V62.6362H170.127C169.968 62.0759 169.853 61.6252 169.786 61.2781C169.646 60.5656 169.573 59.8409 169.56 59.098L169.524 56.7472C169.499 55.1334 169.207 54.0555 168.641 53.5196C168.074 52.9837 167.009 52.7097 165.456 52.7097L165.45 52.7036ZM168.665 48.0996C169.719 47.6185 170.249 46.6685 170.249 45.2496C170.249 43.7149 169.737 42.6857 168.72 42.1559C168.148 41.8575 167.289 41.7113 166.144 41.7113H159.993V48.5137H165.992C167.185 48.5137 168.074 48.3737 168.671 48.0996H168.665Z" fill="black"/>
</svg>
