<svg width="21" height="24" viewBox="0 0 21 24" fill="none" xmlns="http://www.w3.org/2000/svg">
<path d="M3.2472 18.77C3.1322 18.71 2.7222 18.245 2.7222 18.01C2.7222 17.425 2.7822 15.2 2.7822 12.805C2.7822 9.705 2.6672 6.31 2.2572 6.02C1.6122 5.55 0.617201 5.32 0.327201 5.435C0.0322014 5.555 -0.142798 5.26 0.152202 5.145C1.0322 4.795 1.6122 4.5 2.6072 4.035C2.7222 4.035 3.3072 3.745 3.4822 3.685C4.0672 3.39 5.1222 2.925 5.2972 2.925C5.5322 2.925 6.1172 3.275 6.6422 4.035C7.4622 2.34 8.9822 0 10.3272 0C11.3822 0 19.9822 2.255 19.9822 2.665C19.9822 3.135 18.8122 6.645 18.5772 7.58C17.7572 10.74 17.7022 12.61 17.6422 12.73C17.5822 12.79 17.4072 12.905 17.1722 12.905C16.8772 12.905 16.5872 12.73 16.5872 12.085C16.5872 11.385 16.9372 10.095 18.1072 7.875C16.6422 6.12 8.2172 4.625 6.8722 4.39C7.2222 5.035 7.4572 5.91 7.5172 7.02L7.7522 15.385C7.7522 16.03 16.1072 18.575 17.8622 18.575C18.0972 18.575 18.2722 18.515 18.3872 18.46C18.1522 19.28 14.8172 23.375 14.0572 23.375C13.5322 23.375 5.0572 20.36 3.2472 18.78V18.77ZM18.9722 14.71C19.7922 14.71 20.2572 15.355 20.2572 16.115C20.2572 16.935 19.6722 17.985 18.3872 18.455C18.6822 17.87 18.7972 17.285 18.7972 16.7C18.7972 15.94 18.5072 15.24 18.1522 14.885C18.4472 14.77 18.7372 14.71 18.9722 14.71Z" fill="white"/>
</svg>
