<svg width="23" height="23" viewBox="0 0 23 23" fill="none" xmlns="http://www.w3.org/2000/svg">
<path d="M20.626 12.5071C20.216 12.5071 19.811 12.5071 19.406 12.5021C19.066 12.4921 18.481 12.5921 18.261 13.3471C17.821 14.8571 17.016 16.1121 15.871 17.0721C13.976 18.6621 11.846 19.2071 9.54099 18.6821C6.20599 17.9271 3.78099 14.9821 3.63599 11.5171C3.54599 9.3521 4.17599 7.5021 5.56099 5.8621C7.84599 3.1521 11.841 2.5071 14.851 4.3621C16.121 5.1471 17.071 6.1771 17.741 7.5171C17.841 7.7121 18.131 8.1721 18.661 8.1921C19.171 8.2071 19.681 8.20711 20.196 8.20211H21.781L21.421 7.13711C20.061 3.08211 15.391 -0.752898 9.42599 0.127102C3.67599 0.972102 -0.364013 6.01211 0.0259874 11.8421C0.415987 17.7271 5.23099 22.1771 11.081 22.1771C11.241 22.1771 11.406 22.1771 11.566 22.1671C17.311 21.9271 21.181 17.4971 21.906 13.4521L22.076 12.5021H20.616L20.626 12.5071Z" fill="white"/>
</svg>
