<svg width="16" height="22" viewBox="0 0 16 22" fill="none" xmlns="http://www.w3.org/2000/svg">
<path d="M15.55 19.36C15.57 18.84 15.335 18.47 14.855 18.25C11.115 16.55 7.37999 14.84 3.64499 13.13H15.545V11.335C15.545 10.57 15.545 9.805 15.55 9.04C15.555 8.56 15.335 8.22 14.9 8.025C11.17 6.37 7.44 4.71 3.715 3.05H15.525V0H0.019989V1.785C0.019989 2.1 0.019989 2.415 0.019989 2.73L0 2.79L0.019989 2.8C0.019989 3.225 0.0199945 3.645 0.00999451 4.07C0.00499451 4.54 0.224998 4.88 0.669998 5.08C4.39 6.735 8.10499 8.4 11.82 10.06H0.0149994V11.635C0.0149994 12.48 0.0149945 13.31 0.00999451 14.14C0.00499451 14.615 0.219999 14.955 0.654999 15.15C4.205 16.775 7.75499 18.405 11.305 20.035L14.355 21.435C14.42 21.465 14.48 21.49 14.555 21.515L15.55 21.915V20.45C15.545 20.075 15.54 19.715 15.555 19.355L15.55 19.36Z" fill="white"/>
</svg>
