<svg width="24" height="22" viewBox="0 0 24 22" fill="none" xmlns="http://www.w3.org/2000/svg">
<path d="M3.655 3.20957C3.63 2.63349 3.60001 2.05741 3.58501 1.47619C3.57501 0.997844 3.58501 0.514354 3.58501 0H23.84V3.16328C23.65 3.16328 23.465 3.16328 23.285 3.16328C16.925 3.16328 10.56 3.16328 4.20002 3.16328C4.01502 3.16328 3.83501 3.18385 3.64501 3.19414L3.65001 3.19927L3.655 3.20957Z" fill="white"/>
<path d="M3.64502 18.3007C3.83002 18.3161 4.01002 18.3418 4.19502 18.3418C10.555 18.3418 16.915 18.3418 23.27 18.3418H23.85V21.5H3.65002V18.2904H3.64502V18.3007Z" fill="white"/>
<path d="M3.6449 12.4011C3.6449 11.3004 3.6449 10.1996 3.6449 9.10406H3.63989C3.81989 9.12978 4.00491 9.16578 4.18491 9.16578C10.5449 9.16578 16.9049 9.16578 23.2699 9.16578H23.8449V12.3291C23.6499 12.3291 23.4599 12.3291 23.2649 12.3291C16.9199 12.3291 10.5749 12.3291 4.2299 12.3291C4.0349 12.3291 3.83989 12.3702 3.63989 12.3908V12.3959L3.6449 12.4011Z" fill="white"/>
<path d="M3.655 18.2956H0V12.4011C0.295 12.4011 0.595004 12.4011 0.895004 12.4011C1.815 12.4114 2.73001 12.4217 3.65001 12.432C3.63001 12.4937 3.595 12.5554 3.595 12.6171C3.595 14.4482 3.595 16.2845 3.595 18.1156C3.595 18.1773 3.63001 18.239 3.65001 18.3007H3.655V18.2956Z" fill="white"/>
<path d="M3.65001 9.06808C2.97501 9.07836 2.29501 9.08865 1.62001 9.09894C1.09001 9.09894 0.56 9.09894 0 9.09894V3.20959C1.24 3.20959 2.45 3.20959 3.66 3.20959C3.66 3.20959 3.65 3.20959 3.655 3.20959C3.635 3.27646 3.595 3.33818 3.595 3.3999C3.595 5.22586 3.595 7.05181 3.595 8.87777C3.595 8.94463 3.63001 9.00636 3.65001 9.07323H3.655L3.65001 9.06808Z" fill="white"/>
</svg>
