<svg width="18" height="22" viewBox="0 0 18 22" fill="none" xmlns="http://www.w3.org/2000/svg">
<path d="M15.188 15.1481L14.873 15.4981C14.763 15.6231 14.658 15.7431 14.548 15.8531C12.073 18.3631 9.19301 19.2081 5.98801 18.3681C4.57301 17.9981 3.64801 17.0031 3.30801 15.4881C3.01801 14.1981 3.313 12.9831 4.208 11.7831C6.283 13.0631 7.67301 13.4481 9.63301 13.3031C10.273 13.2581 10.938 13.1131 11.553 12.8881C13.348 12.2281 14.253 10.8481 14.108 8.99313C13.983 7.44813 12.748 6.22813 10.963 5.87813C8.64301 5.42813 6.64801 6.27313 5.16301 7.05313C4.98801 7.14313 4.81801 7.24313 4.64801 7.34313C4.43801 6.16313 4.85801 5.08813 5.82301 4.35313C7.06301 3.40813 8.59301 3.02813 10.503 3.18813C11.228 3.24813 11.938 3.38313 12.688 3.52313C13.028 3.58813 13.378 3.65313 13.728 3.71313L13.918 3.74313L14.893 1.15813L14.748 1.05313C14.713 1.02813 14.688 1.00813 14.663 0.988131C14.603 0.938131 14.548 0.898132 14.468 0.868132L14.383 0.83813C14.118 0.74313 13.853 0.653132 13.578 0.578132C10.173 -0.356868 7.44801 -0.161871 5.00801 1.19313C1.98801 2.86813 0.688011 6.31313 1.98801 9.20813C2.02301 9.28313 1.98801 9.49813 1.88801 9.67313C1.73801 9.94313 1.568 10.2031 1.403 10.4681C1.153 10.8581 0.893006 11.2631 0.693006 11.6981C-0.821994 15.0031 0.213005 18.7231 3.153 20.5431C4.558 21.4131 6.13301 21.8431 7.92301 21.8431C8.61301 21.8431 9.33801 21.7781 10.098 21.6531C13.023 21.1581 15.498 19.6681 17.458 17.2281L17.603 17.0431L15.188 15.1531V15.1481ZM6.63801 9.67313C8.02301 8.89313 9.21301 8.64313 10.463 8.84813C10.518 8.85813 11.018 8.94813 11.018 9.27813C11.018 9.58313 10.773 9.84813 10.548 9.94313C9.28301 10.4531 8.033 10.3681 6.63801 9.67313Z" fill="white"/>
</svg>
