<svg width="18" height="22" viewBox="0 0 18 22" fill="none" xmlns="http://www.w3.org/2000/svg">
<path d="M0 17.1938V8.5969H1.99775V4.29586H3.99552V2.14534H7.99607V4.29586H5.99832V8.5969H4.00056V12.8979H8.00112V15.0485H4.00056V17.199H5.99832V19.3495H11.9966V21.5H4.00056V19.3495H2.0028V17.199H0.00504207L0 17.1938ZM13.9994 8.5969V2.15052H8.00112V0H15.9972V2.15052H17.995V8.5969H15.9972V10.7474H11.9966V8.5969H13.9944H13.9994ZM12.0017 10.7422V12.8928H8.00112V10.7422H12.0017ZM15.9972 17.1938V19.3443H11.9966V17.1938H15.9972ZM18 15.0433V17.1938H16.0022V15.0433H18Z" fill="white"/>
</svg>
