<svg width="162" height="11" viewBox="0 0 162 11" fill="none" xmlns="http://www.w3.org/2000/svg">
<path d="M54.9611 2.22116C54.9543 1.32964 53.9403 0.746633 53.0669 0.735291C51.5901 0.717143 48.2532 0.717143 46.849 0.735291C45.9824 0.746633 45.4107 1.33871 45.3949 2.24157C45.3835 2.84953 45.3903 4.13123 45.3926 4.6802C45.3971 5.63751 45.8712 6.18195 46.7696 6.26815V7.19369C46.756 7.19369 46.7401 7.19596 46.7265 7.19823C45.9733 7.26856 45.4743 7.74948 45.4243 8.45498C45.3903 8.94271 45.3926 9.1378 45.3971 9.43043C45.3971 9.56881 45.4017 9.72987 45.3994 9.95445C45.3994 10.0225 45.4243 10.0815 45.4811 10.1337L45.5378 10.2017H47.8834V8.11471H49.2377C50.7644 8.11471 52.0007 8.11471 52.9263 8.11471C53.9357 8.11244 54.9611 7.09161 54.9656 6.09121C54.9656 5.32672 54.9724 3.41665 54.9656 2.21888L54.9611 2.22116ZM52.6926 2.55916V5.84848H47.8675V2.55916H52.6926Z" fill="white"/>
<path d="M18.0798 6.4749V5.4087H19.146V1.78592H18.0798V0.719727H10.9885V10.1998H12.4789V6.47037H15.521V7.53655H16.5872V9.13358H17.6534V10.1998H19.1438V8.70937H18.0776V7.11235H17.0114V6.47263H18.0776L18.0798 6.4749ZM17.6556 4.9845H12.4835V2.21467H17.6556V4.9845Z" fill="white"/>
<path d="M42.7612 7.34149C42.6659 7.31427 42.5729 7.29158 42.4845 7.26663C42.2939 7.21672 42.1124 7.16908 41.94 7.11237C41.5045 6.96719 41.3479 7.30066 41.298 7.41181C41.1438 7.74528 40.9623 8.09236 40.7581 8.44397C40.588 8.73661 40.4564 8.67536 40.3861 8.6436C40.3249 8.61411 40.2704 8.58916 40.377 8.31013C40.5585 7.83602 40.7627 7.36417 40.985 6.91047C41.1597 6.55205 41.3434 6.19817 41.5272 5.84428C41.8334 5.24994 42.151 4.63517 42.43 4.01133C42.6251 3.57125 42.7476 3.03362 42.7703 2.49825C42.7907 2.00599 42.6183 1.54095 42.2803 1.18933C41.9241 0.817296 41.416 0.606326 40.8829 0.604057C40.1547 0.604057 39.54 0.939793 39.0205 1.25511C38.8617 1.35039 38.7052 1.45021 38.5486 1.55229L38.5395 1.55682C38.4919 1.45701 38.4488 1.36174 38.3966 1.26873C37.7932 0.163971 36.6136 -0.276119 35.4589 0.175312C35.0257 0.345449 34.6922 0.554149 34.4653 0.801415C33.8959 1.41845 33.5103 1.91752 33.2131 2.42112C32.2422 4.06805 31.6864 6.00988 31.5186 8.36231C31.4936 8.72073 31.5004 9.08369 31.5072 9.43531C31.5095 9.59637 31.514 9.75516 31.514 9.91623V10.134H33.0611L33.077 9.93211C33.0997 9.65535 33.1178 9.38313 33.136 9.11091C33.1768 8.50523 33.2154 7.93356 33.2925 7.35963C33.5443 5.47225 34.1251 3.91379 35.0642 2.59126C35.3001 2.25779 35.6449 1.95381 36.0079 1.75645C36.2166 1.64303 36.4072 1.61581 36.575 1.67479C36.761 1.74057 36.9176 1.91525 37.0265 2.18066C37.0491 2.23511 37.0673 2.29182 37.0854 2.34853C37.1127 2.4302 37.1399 2.51186 37.1739 2.58899C37.2102 2.67066 37.2125 2.71603 37.0968 2.86575C36.972 3.02681 36.845 3.1856 36.7179 3.34667C36.1962 4.0068 35.6586 4.68961 35.189 5.40873C34.5334 6.41594 34.1863 7.38686 34.1341 8.37592C34.0888 9.213 34.3701 9.77105 34.9916 10.0841C35.7243 10.4516 36.4548 10.3699 37.0469 9.85044C37.335 9.59864 37.5981 9.26971 37.8068 8.89994C38.653 7.40501 39.0454 5.72405 38.9728 3.90018C38.9524 3.39884 39.0817 3.13116 39.4515 2.91338C39.5604 2.8476 39.667 2.77955 39.7736 2.71149C39.9369 2.60714 40.0935 2.50733 40.2568 2.42112C40.3748 2.35761 40.5222 2.31451 40.6833 2.29409C40.7944 2.28048 40.9464 2.28048 41.0349 2.36441C41.1211 2.44835 41.1302 2.59806 41.1211 2.70695C41.1052 2.91565 41.0621 3.11528 40.9941 3.28542C40.8648 3.61435 40.7082 3.96143 40.5131 4.34707C40.3453 4.67827 40.1729 5.00494 40.0005 5.33387C39.6488 5.99854 39.2859 6.68589 38.9774 7.38686C38.7982 7.79065 38.7165 8.28745 38.7188 8.95212C38.7188 9.64854 39.2314 10.193 39.9891 10.3064C40.0844 10.32 40.1774 10.3268 40.2704 10.3268C40.6719 10.3268 41.0485 10.193 41.3933 9.92757C42.0807 9.39901 42.5661 8.66856 42.9177 7.62505L42.9926 7.40501L42.7703 7.34375L42.7612 7.34149ZM36.2574 8.29879C36.0782 8.59143 35.8922 8.69578 35.8264 8.65721C35.6722 8.56874 35.6744 8.46439 35.7561 8.1468L35.7674 8.10597C36.0351 7.04885 36.6295 6.14372 37.2284 5.27489C37.1308 6.40233 36.811 7.39593 36.2574 8.29879Z" fill="white"/>
<path d="M66.8433 2.13722C66.832 1.88315 66.8184 1.62908 66.8116 1.37274C66.807 1.16177 66.8116 0.948529 66.8116 0.72168H76.0013V2.11681C75.9151 2.11681 75.8311 2.11681 75.7495 2.11681C72.8639 2.11681 69.9761 2.11681 67.0906 2.11681C67.0067 2.11681 66.925 2.12588 66.8388 2.13042L66.8411 2.13268L66.8433 2.13722Z" fill="white"/>
<path d="M66.8389 8.79263C66.9228 8.79943 67.0045 8.81077 67.0884 8.81077C69.9739 8.81077 72.8595 8.81077 75.7427 8.81077H76.0059V10.2036H66.8411V8.78809H66.8389V8.79263Z" fill="white"/>
<path d="M66.8389 6.19141C66.8389 5.70595 66.8389 5.22049 66.8389 4.7373H66.8367C66.9183 4.74865 67.0023 4.76453 67.0839 4.76453C69.9695 4.76453 72.855 4.76453 75.7428 4.76453H76.0037V6.15965C75.9152 6.15965 75.829 6.15965 75.7405 6.15965C72.8618 6.15965 69.9831 6.15965 67.1044 6.15965C67.0159 6.15965 66.9274 6.1778 66.8367 6.18688V6.18914L66.8389 6.19141Z" fill="white"/>
<path d="M66.8434 8.79012H65.1852V6.19043C65.319 6.19043 65.4551 6.19043 65.5912 6.19043C66.0086 6.19497 66.4238 6.1995 66.8412 6.20404C66.8321 6.23126 66.8162 6.25848 66.8162 6.2857C66.8162 7.09329 66.8162 7.90314 66.8162 8.71072C66.8162 8.73795 66.8321 8.76517 66.8412 8.79239H66.8434V8.79012Z" fill="white"/>
<path d="M66.8412 4.72151C66.5349 4.72604 66.2264 4.73058 65.9202 4.73512C65.6797 4.73512 65.4393 4.73512 65.1852 4.73512V2.1377C65.7478 2.1377 66.2967 2.1377 66.8457 2.1377C66.8457 2.1377 66.8412 2.1377 66.8434 2.1377C66.8344 2.16719 66.8162 2.19441 66.8162 2.22163C66.8162 3.02694 66.8162 3.83226 66.8162 4.63757C66.8162 4.66706 66.8321 4.69429 66.8412 4.72378H66.8434L66.8412 4.72151Z" fill="white"/>
<path d="M87.1806 8.27374C86.5159 7.96296 85.5745 7.64764 84.6626 7.34366C84.1613 7.17579 83.6508 7.00566 83.1858 6.83779H84.8032C85.2161 6.83779 85.5995 6.76973 85.9715 6.63135C87.3122 6.13229 88.1402 4.64642 87.8544 3.24903C87.5527 1.77224 86.3367 0.776367 84.8305 0.776367C84.1091 0.776367 81.9291 0.776367 80.6859 0.776367H78.2949V10.2201H80.1664V7.91532L87.5799 10.4969V9.47151C87.5799 9.28549 87.5776 9.10628 87.5799 8.92934C87.5867 8.63444 87.4438 8.40305 87.1761 8.27601L87.1806 8.27374ZM85.3431 4.95948C85.2002 5.0298 85.0414 5.06609 84.8736 5.06609C84.134 5.06609 81.2326 5.06609 80.4954 5.06609H80.1732V2.53672H80.4681C81.2508 2.53672 82.6436 2.53672 82.8183 2.53672C83.424 2.53899 84.1113 2.54353 84.7919 2.53218H84.8146C85.5428 2.53218 85.9806 3.11972 86.026 3.67324C86.0691 4.22448 85.8014 4.72582 85.3431 4.95493V4.95948Z" fill="white"/>
<path d="M30.1937 4.72103H27.2015L29.3067 2.61814L28.2791 1.59051L26.1898 3.6798V0.72168H24.7153V3.6798L22.6396 1.60412L21.5802 2.66351L23.6513 4.73691H20.725V6.20236H23.6831L21.6052 8.2803L22.6645 9.34196L24.7311 7.27536V10.204H26.192V7.20957L28.2813 9.30112L29.3203 8.26216L27.2537 6.19555H30.1937V4.72103Z" fill="#38F5A0"/>
<path d="M59.0352 2.40263H56.161L56.5058 0.72168H64.1484L63.8036 2.40263H60.9022L59.2507 10.204H57.3837L59.0352 2.40263Z" fill="white"/>
<path d="M0.00226811 0.729147C0.129304 0.729147 3.82468 0.731415 6.68979 0.724609C7.25238 0.724609 9.17379 2.59838 9.17152 2.87741C9.16926 3.34018 9.17152 4.57652 9.17152 4.73985C9.17152 4.91679 8.44334 5.71076 7.37261 6.56598C7.16391 6.73158 6.99377 6.84047 6.72382 6.83821C4.67764 6.82913 4.85912 6.83366 2.81293 6.83366C2.69043 6.83366 2.56794 6.83366 2.4046 6.83366V10.2069H0V0.731415L0.00226811 0.729147ZM6.73062 2.82977H2.42502V4.73985H6.73062V2.82977Z" fill="white"/>
<path d="M95.913 0.280591H97.8481V4.04629H106.82V0.298736H108.821V9.69257H106.89V5.96997H97.8912V9.68123H95.9108V0.27832L95.913 0.280591Z" fill="white"/>
<path d="M143.583 7.75009V3.97759H144.482V2.0902H145.38V1.1465H147.179V2.0902H146.28V3.97759H145.382V5.86497H147.181V6.80867H145.382V7.75236H146.28V8.69605H148.978V9.63975H145.382V8.69605H144.484V7.75236H143.585L143.583 7.75009ZM149.878 3.97759V1.14877H147.181V0.205078H150.777V1.14877H151.675V3.97759H150.777V4.92128H148.978V3.97759H149.876H149.878ZM148.98 4.91901V5.8627H147.181V4.91901H148.98ZM150.777 7.75009V8.69379H148.978V7.75009H150.777ZM151.677 6.8064V7.75009H150.779V6.8064H151.677Z" fill="white"/>
<path d="M130.222 5.92641C130.036 5.92641 129.852 5.92641 129.668 5.92414C129.514 5.91961 129.249 5.96498 129.149 6.30752C128.949 6.9926 128.584 7.562 128.064 7.99755C127.205 8.71893 126.238 8.9662 125.193 8.72801C123.679 8.38546 122.579 7.04932 122.513 5.47725C122.473 4.49499 122.758 3.65565 123.387 2.91158C124.423 1.68206 126.236 1.38942 127.602 2.23103C128.178 2.58719 128.609 3.0545 128.913 3.66245C128.958 3.75093 129.09 3.95963 129.33 3.9687C129.562 3.97551 129.793 3.97551 130.027 3.97324H130.746L130.582 3.49005C129.965 1.6503 127.847 -0.0896359 125.14 0.309619C122.532 0.692995 120.699 2.97964 120.876 5.62471C121.053 8.29473 123.237 10.3137 125.891 10.3137C125.964 10.3137 126.039 10.3137 126.111 10.3091C128.718 10.2003 130.474 8.19037 130.802 6.35516L130.88 5.92414H130.217L130.222 5.92641Z" fill="white"/>
<path d="M119.766 9.59234C119.469 9.69895 119.211 9.78515 118.986 9.85094C118.761 9.91673 118.51 9.95076 118.226 9.95076C117.734 9.95076 117.344 9.83506 117.049 9.60595C116.756 9.37683 116.568 9.04109 116.486 8.59873H116.429C116.019 9.05243 115.581 9.39952 115.111 9.63771C114.642 9.8759 114.077 9.99613 113.415 9.99613C112.716 9.99613 112.14 9.78289 111.69 9.35415C111.239 8.9254 111.014 8.36508 111.014 7.67319C111.014 7.31477 111.064 6.99264 111.166 6.70908C111.266 6.42552 111.418 6.17144 111.62 5.94459C111.777 5.75631 111.985 5.58617 112.244 5.43872C112.503 5.29127 112.745 5.17331 112.972 5.08484C113.256 4.97822 113.83 4.77859 114.696 4.49049C115.563 4.20013 116.146 3.97328 116.45 3.80994V2.87532C116.45 2.79365 116.432 2.63486 116.398 2.40348C116.364 2.16982 116.289 1.94977 116.175 1.74107C116.048 1.50742 115.871 1.30553 115.642 1.13085C115.413 0.958448 115.086 0.869971 114.664 0.869971C114.374 0.869971 114.106 0.919883 113.857 1.01743C113.607 1.11497 113.433 1.21705 113.333 1.32367C113.333 1.45071 113.362 1.63446 113.424 1.88172C113.483 2.12672 113.514 2.35357 113.514 2.56227C113.514 2.78232 113.415 2.98421 113.217 3.16796C113.02 3.35171 112.743 3.44244 112.391 3.44244C112.076 3.44244 111.845 3.33129 111.697 3.10671C111.55 2.8844 111.475 2.6326 111.475 2.35584C111.475 2.07908 111.577 1.78871 111.781 1.5233C111.985 1.25788 112.253 1.02196 112.58 0.815529C112.863 0.638587 113.206 0.488863 113.61 0.366365C114.013 0.243866 114.406 0.182617 114.792 0.182617C115.32 0.182617 115.783 0.218916 116.175 0.291507C116.568 0.364099 116.926 0.520625 117.248 0.758817C117.57 0.992472 117.813 1.30779 117.981 1.70932C118.149 2.10857 118.231 2.62352 118.231 3.25416C118.231 4.15475 118.221 4.95326 118.203 5.64969C118.185 6.34612 118.176 7.10606 118.176 7.9318C118.176 8.17679 118.219 8.37189 118.303 8.51707C118.387 8.66226 118.519 8.78475 118.696 8.88457C118.791 8.94128 118.941 8.97303 119.145 8.97984C119.349 8.98664 119.56 8.98892 119.773 8.98892V9.59461L119.766 9.59234ZM116.47 4.60392C115.935 4.76271 115.465 4.91697 115.061 5.06896C114.658 5.22095 114.283 5.40923 113.936 5.63608C113.621 5.85159 113.371 6.10566 113.19 6.39829C113.006 6.69093 112.915 7.04028 112.915 7.44407C112.915 7.96809 113.052 8.35374 113.326 8.59873C113.601 8.846 113.948 8.9685 114.37 8.9685C114.816 8.9685 115.211 8.85961 115.551 8.64184C115.892 8.42406 116.178 8.16772 116.411 7.87055L116.468 4.60392H116.47Z" fill="white"/>
<path d="M136.163 9.48347H137.145V9.69217H132.232V9.48347H133.28V0.967542L132.114 0.259766H137.327L136.161 0.967542V9.48347H136.163ZM143.093 9.48347V9.69217H139.123L136.294 5.17333L139.713 0.953924L138.547 0.259766H142.649L138.259 3.08858L142.438 9.4812H143.093V9.48347Z" fill="white"/>
<path d="M157.541 6.0694H155.506V9.76931H153.58V0.336914H158.208C158.868 0.350525 159.379 0.429917 159.735 0.579638C160.091 0.729358 160.393 0.949403 160.64 1.23977C160.844 1.47796 161.007 1.74338 161.125 2.03374C161.243 2.32411 161.305 2.65531 161.305 3.02507C161.305 3.47197 161.191 3.91433 160.964 4.34761C160.738 4.78089 160.366 5.08714 159.844 5.26635C160.279 5.44102 160.588 5.69056 160.769 6.01269C160.951 6.33481 161.042 6.82708 161.042 7.48721V8.12012C161.042 8.55113 161.06 8.84377 161.094 8.99575C161.146 9.23848 161.264 9.41769 161.452 9.53339V9.76931H159.283C159.224 9.56061 159.181 9.39274 159.156 9.26344C159.104 8.99802 159.077 8.72807 159.072 8.45132L159.059 7.57567C159.05 6.97452 158.941 6.573 158.73 6.37337C158.519 6.17375 158.122 6.07167 157.544 6.07167L157.541 6.0694ZM158.739 4.35442C159.131 4.1752 159.329 3.82132 159.329 3.29276C159.329 2.7211 159.138 2.33772 158.759 2.14036C158.546 2.02921 158.226 1.97476 157.8 1.97476H155.509V4.50867H157.743C158.188 4.50867 158.519 4.4565 158.741 4.35442H158.739Z" fill="white"/>
</svg>
