<svg width="291" height="12" viewBox="0 0 291 12" fill="none" xmlns="http://www.w3.org/2000/svg">
<path d="M54.9613 2.77658C54.9545 1.88506 53.9405 1.30205 53.0671 1.29071C51.5903 1.27256 48.2533 1.27256 46.8491 1.29071C45.9826 1.30205 45.4109 1.89413 45.395 2.79699C45.3837 3.40495 45.3905 4.68665 45.3928 5.23562C45.3973 6.19293 45.8714 6.73737 46.7697 6.82357V7.74911C46.7561 7.74911 46.7403 7.75138 46.7266 7.75365C45.9735 7.82398 45.4744 8.3049 45.4245 9.0104C45.3905 9.49813 45.3928 9.69322 45.3973 9.98585C45.3973 10.1242 45.4018 10.2853 45.3996 10.5099C45.3996 10.5779 45.4245 10.6369 45.4812 10.6891L45.538 10.7571H47.8836V8.67013H49.2379C50.7646 8.67013 52.0009 8.67013 52.9264 8.67013C53.9359 8.66786 54.9613 7.64703 54.9658 6.64663C54.9658 5.88214 54.9726 3.97207 54.9658 2.7743L54.9613 2.77658ZM52.6928 3.11458V6.4039H47.8677V3.11458H52.6928Z" fill="white"/>
<path d="M18.0796 7.03008V5.96388H19.1458V2.3411H18.0796V1.2749H10.9883V10.7549H12.4787V7.02554H15.5207V8.09173H16.5869V9.68875H17.6531V10.7549H19.1435V9.26454H18.0773V7.66752H17.0111V7.0278H18.0773L18.0796 7.03008ZM17.6554 5.53967H12.4832V2.76984H17.6554V5.53967Z" fill="white"/>
<path d="M42.7613 7.89667C42.666 7.86944 42.573 7.84675 42.4845 7.8218C42.294 7.77189 42.1125 7.72426 41.9401 7.66754C41.5045 7.52236 41.348 7.85583 41.2981 7.96699C41.1438 8.30046 40.9624 8.64753 40.7582 8.99915C40.5881 9.29179 40.4565 9.23054 40.3862 9.19878C40.3249 9.16929 40.2705 9.14433 40.3771 8.86531C40.5586 8.39119 40.7627 7.91934 40.985 7.46565C41.1597 7.10722 41.3435 6.75334 41.5272 6.39946C41.8335 5.80511 42.1511 5.19035 42.4301 4.56651C42.6252 4.12642 42.7477 3.58879 42.7704 3.05343C42.7908 2.56116 42.6184 2.09612 42.2804 1.74451C41.9242 1.37247 41.4161 1.1615 40.883 1.15923C40.1548 1.15923 39.54 1.49497 39.0205 1.81029C38.8617 1.90557 38.7052 2.00538 38.5487 2.10747L38.5396 2.112C38.492 2.01219 38.4489 1.91691 38.3967 1.8239C37.7933 0.719147 36.6137 0.279057 35.459 0.730488C35.0257 0.900625 34.6922 1.10932 34.4654 1.35659C33.896 1.97362 33.5104 2.47269 33.2132 2.9763C32.2423 4.62323 31.6865 6.56506 31.5186 8.91749C31.4937 9.27591 31.5005 9.63887 31.5073 9.99048C31.5095 10.1515 31.5141 10.3103 31.5141 10.4714V10.6892H33.0612L33.0771 10.4873C33.0998 10.2105 33.1179 9.93831 33.1361 9.66609C33.1769 9.0604 33.2155 8.48874 33.2926 7.91481C33.5444 6.02742 34.1251 4.46897 35.0643 3.14644C35.3002 2.81297 35.645 2.50899 36.008 2.31163C36.2167 2.1982 36.4072 2.17098 36.5751 2.22996C36.7611 2.29575 36.9176 2.47043 37.0265 2.73584C37.0492 2.79028 37.0674 2.84699 37.0855 2.90371C37.1127 2.98537 37.14 3.06704 37.174 3.14417C37.2103 3.22583 37.2125 3.2712 37.0968 3.42092C36.9721 3.58199 36.845 3.74078 36.718 3.90184C36.1963 4.56197 35.6586 5.24479 35.189 5.9639C34.5335 6.97111 34.1864 7.94203 34.1342 8.9311C34.0888 9.76817 34.3701 10.3262 34.9917 10.6393C35.7244 11.0068 36.4549 10.9251 37.0469 10.4056C37.335 10.1538 37.5982 9.82489 37.8069 9.45512C38.653 7.96018 39.0455 6.27923 38.9729 4.45536C38.9525 3.95402 39.0818 3.68633 39.4515 3.46856C39.5604 3.40277 39.6671 3.33472 39.7737 3.26667C39.937 3.16232 40.0935 3.0625 40.2569 2.9763C40.3748 2.91278 40.5223 2.86968 40.6833 2.84926C40.7945 2.83565 40.9465 2.83565 41.035 2.91959C41.1212 3.00352 41.1302 3.15324 41.1212 3.26213C41.1053 3.47083 41.0622 3.67046 40.9941 3.8406C40.8648 4.16953 40.7083 4.51661 40.5132 4.90225C40.3453 5.23345 40.1729 5.56011 40.0005 5.88905C39.6489 6.55371 39.2859 7.24107 38.9774 7.94203C38.7982 8.34582 38.7166 8.84262 38.7188 9.50729C38.7188 10.2037 39.2315 10.7482 39.9892 10.8616C40.0845 10.8752 40.1775 10.882 40.2705 10.882C40.672 10.882 41.0486 10.7482 41.3934 10.4827C42.0807 9.95419 42.5662 9.22373 42.9178 8.18023L42.9927 7.96018L42.7704 7.89893L42.7613 7.89667ZM36.2575 8.85397C36.0783 9.14661 35.8923 9.25095 35.8265 9.21239C35.6722 9.12392 35.6745 9.01957 35.7562 8.70198L35.7675 8.66115C36.0352 7.60403 36.6295 6.6989 37.2284 5.83006C37.1309 6.9575 36.811 7.95111 36.2575 8.85397Z" fill="white"/>
<path d="M66.8433 2.6924C66.832 2.43833 66.8184 2.18425 66.8116 1.92791C66.807 1.71694 66.8116 1.5037 66.8116 1.27686H76.0013V2.67198C75.9151 2.67198 75.8311 2.67198 75.7495 2.67198C72.8639 2.67198 69.9761 2.67198 67.0906 2.67198C67.0067 2.67198 66.925 2.68106 66.8388 2.68559L66.8411 2.68786L66.8433 2.6924Z" fill="white"/>
<path d="M66.8389 9.34829C66.9228 9.3551 67.0045 9.36644 67.0884 9.36644C69.9739 9.36644 72.8595 9.36644 75.7427 9.36644H76.0059V10.7593H66.8411V9.34375H66.8389V9.34829Z" fill="white"/>
<path d="M66.8392 6.7461C66.8392 6.26064 66.8392 5.77518 66.8392 5.29199H66.8369C66.9186 5.30333 67.0025 5.31921 67.0842 5.31921C69.9697 5.31921 72.8552 5.31921 75.743 5.31921H76.0039V6.71434C75.9154 6.71434 75.8292 6.71434 75.7408 6.71434C72.862 6.71434 69.9833 6.71434 67.1046 6.71434C67.0161 6.71434 66.9277 6.73249 66.8369 6.74156V6.74383L66.8392 6.7461Z" fill="white"/>
<path d="M66.8438 9.34579H65.1855V6.74609C65.3194 6.74609 65.4555 6.74609 65.5916 6.74609C66.009 6.75063 66.4241 6.75517 66.8416 6.7597C66.8325 6.78693 66.8166 6.81414 66.8166 6.84137C66.8166 7.64895 66.8166 8.4588 66.8166 9.26639C66.8166 9.29361 66.8325 9.32084 66.8416 9.34806H66.8438V9.34579Z" fill="white"/>
<path d="M66.8416 5.27644C66.5353 5.28098 66.2268 5.28551 65.9205 5.29005C65.6801 5.29005 65.4396 5.29005 65.1855 5.29005V2.69263C65.7481 2.69263 66.2971 2.69263 66.8461 2.69263C66.8461 2.69263 66.8415 2.69263 66.8438 2.69263C66.8347 2.72212 66.8166 2.74934 66.8166 2.77656C66.8166 3.58188 66.8166 4.38719 66.8166 5.19251C66.8166 5.222 66.8325 5.24922 66.8416 5.27871H66.8438L66.8416 5.27644Z" fill="white"/>
<path d="M87.1806 8.82892C86.5159 8.51813 85.5745 8.20281 84.6626 7.89883C84.1613 7.73097 83.6508 7.56083 83.1858 7.39296H84.8032C85.2161 7.39296 85.5995 7.32491 85.9715 7.18653C87.3122 6.68746 88.1402 5.2016 87.8544 3.8042C87.5527 2.32741 86.3367 1.33154 84.8305 1.33154C84.1091 1.33154 81.9291 1.33154 80.6859 1.33154H78.2949V10.7753H80.1664V8.4705L87.5799 11.052V10.0267C87.5799 9.84067 87.5776 9.66146 87.5799 9.48452C87.5867 9.18961 87.4438 8.95822 87.1761 8.83119L87.1806 8.82892ZM85.3431 5.51465C85.2002 5.58497 85.0414 5.62127 84.8736 5.62127C84.134 5.62127 81.2326 5.62127 80.4954 5.62127H80.1732V3.09189H80.4681C81.2508 3.09189 82.6436 3.09189 82.8183 3.09189C83.424 3.09416 84.1113 3.0987 84.7919 3.08736H84.8146C85.5428 3.08736 85.9806 3.6749 86.026 4.22841C86.0691 4.77966 85.8014 5.28099 85.3431 5.51011V5.51465Z" fill="white"/>
<path d="M30.1933 5.27645H27.2012L29.3063 3.17356L28.2787 2.14593L26.1894 4.23522V1.2771H24.7149V4.23522L22.6392 2.15954L21.5798 3.21893L23.651 5.29233H20.7246V6.75778H23.6827L21.6048 8.83572L22.6642 9.89738L24.7308 7.83078V10.7594H26.1917V7.76499L28.281 9.85654L29.3199 8.81758L27.2533 6.75097H30.1933V5.27645Z" fill="#38F5A0"/>
<path d="M59.0353 2.95805H56.1611L56.5059 1.2771H64.1485L63.8037 2.95805H60.9023L59.2508 10.7594H57.3839L59.0353 2.95805Z" fill="white"/>
<path d="M0.00226811 1.28383C0.129304 1.28383 3.82468 1.2861 6.68979 1.2793C7.25238 1.2793 9.17379 3.15307 9.17152 3.4321C9.16926 3.89487 9.17152 5.1312 9.17152 5.29454C9.17152 5.47148 8.44334 6.26545 7.37261 7.12067C7.16391 7.28627 6.99377 7.39516 6.72382 7.39289C4.67764 7.38382 4.85912 7.38835 2.81293 7.38835C2.69043 7.38835 2.56794 7.38835 2.4046 7.38835V10.7616H0V1.2861L0.00226811 1.28383ZM6.73062 3.38446H2.42502V5.29454H6.73062V3.38446Z" fill="white"/>
<path d="M95.9134 0.835767H97.8484V4.60146H106.82V0.853912H108.821V10.2477H106.891V6.52515H97.8915V10.2364H95.9111V0.833496L95.9134 0.835767Z" fill="white"/>
<path d="M143.584 8.30576V4.53325H144.482V2.64586H145.381V1.70217H147.18V2.64586H146.281V4.53325H145.383V6.42064H147.182V7.36433H145.383V8.30802H146.281V9.25172H148.978V10.1954H145.383V9.25172H144.485V8.30802H143.586L143.584 8.30576ZM149.879 4.53325V1.70444H147.182V0.760742H150.777V1.70444H151.676V4.53325H150.777V5.47694H148.978V4.53325H149.877H149.879ZM148.981 5.47467V6.41837H147.182V5.47467H148.981ZM150.777 8.30576V9.24945H148.978V8.30576H150.777ZM151.678 7.36206V8.30576H150.78V7.36206H151.678Z" fill="white"/>
<path d="M130.222 6.48183C130.036 6.48183 129.852 6.48183 129.669 6.47956C129.514 6.47503 129.249 6.5204 129.149 6.86294C128.95 7.54802 128.584 8.11742 128.065 8.55297C127.205 9.27435 126.239 9.52162 125.193 9.28343C123.68 8.94088 122.58 7.60474 122.514 6.03267C122.473 5.05041 122.759 4.21107 123.387 3.467C124.424 2.23748 126.237 1.94484 127.602 2.78645C128.178 3.14261 128.609 3.60992 128.913 4.21787C128.959 4.30634 129.09 4.51505 129.331 4.52412C129.562 4.53093 129.794 4.53093 130.027 4.52866H130.746L130.583 4.04547C129.966 2.20572 127.847 0.465784 125.141 0.865039C122.532 1.24841 120.699 3.53506 120.876 6.18013C121.053 8.85015 123.238 10.8691 125.892 10.8691C125.964 10.8691 126.039 10.8691 126.112 10.8646C128.718 10.7557 130.474 8.74579 130.803 6.91058L130.88 6.47956H130.218L130.222 6.48183Z" fill="white"/>
<path d="M119.767 10.1478C119.469 10.2544 119.211 10.3406 118.986 10.4064C118.762 10.4721 118.51 10.5062 118.226 10.5062C117.734 10.5062 117.344 10.3905 117.049 10.1614C116.756 9.93225 116.568 9.59651 116.486 9.15415H116.43C116.019 9.60785 115.581 9.95494 115.112 10.1931C114.642 10.4313 114.077 10.5515 113.415 10.5515C112.716 10.5515 112.14 10.3383 111.691 9.90957C111.239 9.48082 111.015 8.9205 111.015 8.22861C111.015 7.87019 111.065 7.54806 111.167 7.2645C111.266 6.98094 111.418 6.72686 111.62 6.50001C111.777 6.31173 111.986 6.14159 112.244 5.99414C112.503 5.84669 112.746 5.72873 112.972 5.64026C113.256 5.53364 113.83 5.33401 114.696 5.04591C115.563 4.75555 116.146 4.5287 116.45 4.36536V3.43074C116.45 3.34907 116.432 3.19028 116.398 2.9589C116.364 2.72524 116.289 2.50519 116.175 2.29649C116.048 2.06284 115.871 1.86095 115.642 1.68627C115.413 1.51387 115.087 1.42539 114.665 1.42539C114.374 1.42539 114.107 1.4753 113.857 1.57285C113.608 1.67039 113.433 1.77247 113.333 1.87909C113.333 2.00613 113.363 2.18988 113.424 2.43714C113.483 2.68214 113.515 2.90899 113.515 3.11769C113.515 3.33774 113.415 3.53963 113.217 3.72338C113.02 3.90712 112.743 3.99786 112.392 3.99786C112.076 3.99786 111.845 3.88671 111.697 3.66213C111.55 3.43982 111.475 3.18802 111.475 2.91126C111.475 2.6345 111.577 2.34413 111.781 2.07872C111.986 1.8133 112.253 1.57738 112.58 1.37095C112.863 1.19401 113.206 1.04428 113.61 0.921785C114.014 0.799286 114.406 0.738037 114.792 0.738037C115.32 0.738037 115.783 0.774336 116.175 0.846927C116.568 0.919519 116.926 1.07604 117.248 1.31424C117.571 1.54789 117.813 1.86321 117.981 2.26474C118.149 2.66399 118.231 3.17894 118.231 3.80958C118.231 4.71017 118.222 5.50868 118.204 6.20511C118.185 6.90154 118.176 7.66148 118.176 8.48722C118.176 8.73221 118.219 8.92731 118.303 9.07249C118.387 9.21768 118.519 9.34017 118.696 9.43999C118.791 9.4967 118.941 9.52845 119.145 9.53526C119.349 9.54206 119.56 9.54434 119.773 9.54434V10.15L119.767 10.1478ZM116.47 5.15934C115.935 5.31813 115.465 5.47239 115.062 5.62438C114.658 5.77637 114.284 5.96465 113.936 6.1915C113.621 6.40701 113.372 6.66108 113.19 6.95371C113.006 7.24635 112.916 7.5957 112.916 7.99949C112.916 8.52351 113.052 8.90916 113.326 9.15415C113.601 9.40142 113.948 9.52392 114.37 9.52392C114.817 9.52392 115.211 9.41503 115.552 9.19726C115.892 8.97948 116.178 8.72314 116.411 8.42597L116.468 5.15934H116.47Z" fill="white"/>
<path d="M136.164 10.0389H137.146V10.2476H132.232V10.0389H133.28V1.52296L132.114 0.815186H137.327L136.161 1.52296V10.0389H136.164ZM143.094 10.0389V10.2476H139.124L136.295 5.72875L139.714 1.50934L138.548 0.815186H142.649L138.26 3.644L142.438 10.0366H143.094V10.0389Z" fill="white"/>
<path d="M157.542 6.62482H155.507V10.3247H153.581V0.892334H158.209C158.869 0.905945 159.379 0.985337 159.735 1.13506C160.092 1.28478 160.393 1.50482 160.641 1.79519C160.845 2.03338 161.008 2.2988 161.126 2.58916C161.244 2.87953 161.305 3.21073 161.305 3.58049C161.305 4.02739 161.192 4.46975 160.965 4.90303C160.738 5.33631 160.366 5.64256 159.844 5.82177C160.28 5.99644 160.588 6.24598 160.77 6.56811C160.951 6.89023 161.042 7.38249 161.042 8.04263V8.67554C161.042 9.10655 161.06 9.39919 161.094 9.55117C161.146 9.7939 161.264 9.97311 161.453 10.0888V10.3247H159.284C159.225 10.116 159.182 9.94816 159.157 9.81886C159.105 9.55344 159.078 9.28349 159.073 9.00674L159.059 8.13109C159.05 7.52994 158.942 7.12842 158.731 6.92879C158.52 6.72917 158.123 6.62709 157.544 6.62709L157.542 6.62482ZM158.74 4.90984C159.132 4.73062 159.329 4.37674 159.329 3.84818C159.329 3.27652 159.139 2.89314 158.76 2.69578C158.547 2.58463 158.227 2.53018 157.8 2.53018H155.509V5.06409H157.744C158.188 5.06409 158.52 5.01192 158.742 4.90984H158.74Z" fill="white"/>
<path d="M185.74 8.80371L186.86 3.52371H188.388C189.292 3.52371 189.756 3.85971 189.756 4.52371C189.756 4.65171 189.74 4.77971 189.708 4.92371C189.588 5.45971 189.308 5.81971 188.804 6.00371L188.796 6.04371C189.236 6.19571 189.468 6.50771 189.468 6.97971C189.468 7.09971 189.452 7.23571 189.42 7.37971C189.212 8.33971 188.612 8.80371 187.548 8.80371H185.74ZM187.02 5.78771H187.868C188.58 5.78771 188.94 5.49171 189.06 4.92371C189.076 4.84371 189.092 4.74771 189.092 4.65971C189.092 4.28371 188.804 4.09971 188.244 4.09971H187.38L187.02 5.78771ZM186.5 8.22771H187.572C188.26 8.22771 188.628 7.93971 188.772 7.28371C188.796 7.17171 188.812 7.06771 188.812 6.96371C188.812 6.54771 188.54 6.36371 187.988 6.36371H186.9L186.5 8.22771ZM190.257 10.6597C189.633 10.6597 189.353 10.3397 189.353 9.84371C189.353 9.76371 189.361 9.68371 189.369 9.61971L189.385 9.49171H189.977L189.961 9.58771C189.953 9.63571 189.945 9.70771 189.945 9.76371C189.945 9.97171 190.057 10.0837 190.329 10.0837C190.641 10.0837 190.833 9.93171 191.153 9.37971L191.481 8.81971L190.809 4.89971H191.441L191.921 7.96371H191.953L193.665 4.89971H194.361L191.657 9.60371C191.209 10.3877 190.833 10.6597 190.257 10.6597Z" fill="white"/>
<path d="M266.817 1.89205V3.82666H268.752V1.89205L266.817 1.89205Z" fill="#404040"/>
<path d="M290.033 11.6074H218.452V0H290.033V11.6074ZM220.387 9.67383H228.125V7.73926H222.321V3.87012H226.19V5.80469H228.125V1.93555H222.321V1.93457H220.387V9.67383ZM230.06 9.67383H237.798V3.87012H235.863V7.73926H231.994V3.87012H235.863V1.93555H231.994V1.93457H230.06V9.67383ZM239.733 9.67383H245.537V7.73926H241.668V1.93457H239.733V9.67383ZM247.471 9.67383H249.405V7.73926H253.274V9.67383H255.209V3.87012H253.274V5.80469L249.405 5.80371V3.87012H247.471V9.67383ZM270.687 9.67285L272.621 9.67383H274.556V7.73926H272.621V1.93457H270.687V9.67285ZM280.359 9.67383H288.098V3.87012H286.163V7.73926H282.294V3.87012H286.163V1.93555H282.294V1.93457H280.359V9.67383ZM260.154 1.93555H257.145V3.87012H260.154V9.67285H262.089V3.87012H264.883V1.93555H262.089V1.93457H260.154V1.93555ZM266.817 1.93457V9.67285H268.752V1.93457H266.817ZM274.556 7.73828H276.49V5.80371H274.556V7.73828ZM276.49 5.80371H278.425V1.93457H276.49V5.80371ZM247.471 3.86914H253.274V1.93457H247.471V3.86914Z" fill="white"/>
</svg>
