<svg width="23" height="22" viewBox="0 0 23 22" fill="none" xmlns="http://www.w3.org/2000/svg">
<path d="M6.51898 9.54992C8.52826 9.54992 11.5149 9.41291 16.8134 9.41291C17.0119 9.41291 17.1111 9.20994 17.1756 8.5655C17.2103 8.12403 17.2103 4.30305 17.1111 2.97864C16.9771 1.7608 16.7836 1.45634 15.3648 1.05039C14.8736 0.913382 14.4767 0.71041 14.4767 0.405949C14.4767 0.167455 14.8041 0.0355203 15.5285 0.0355203C15.9551 0.0355203 18.1281 0.101489 18.9517 0.101489C20.0729 0.101489 21.6853 0 22.0475 0C22.6081 0 23 0.137009 23 0.405949C23 0.608923 22.7371 0.847416 22.0127 1.01487C20.698 1.35485 20.4351 1.96377 20.3656 2.91268C20.2019 4.63795 20.1027 7.61659 20.1027 13.2034C20.1027 15.0657 20.2019 17.8109 20.2317 18.4858C20.2664 19.8052 20.5938 19.9067 22.0772 20.3481C22.5684 20.5156 22.8363 20.7896 22.8363 20.9926C22.8363 21.297 22.5386 21.3985 21.9135 21.3985C21.3876 21.3985 20.0679 21.297 19.0509 21.297C18.3266 21.297 15.8261 21.5 15.1663 21.5C14.6057 21.5 14.2783 21.3985 14.2783 21.0941C14.2783 20.7896 14.6751 20.5866 15.0671 20.4851C16.7787 19.9777 16.9126 19.6022 17.0416 17.202C17.1061 15.7457 17.1756 13.239 17.1409 11.7471C17.1409 11.1737 17.0069 11.0722 16.7787 11.0722C12.2045 11.0722 7.13913 10.9352 6.48425 11.0063C6.38503 11.0418 6.15682 11.3462 6.15682 11.6152C6.05759 12.5641 6.15682 16.7301 6.15682 17.745C6.15682 19.3383 6.48425 19.9117 7.86842 20.3532C8.59275 20.5562 8.89042 20.7236 8.92019 21.0636C8.92019 21.3325 8.35958 21.434 7.93292 21.434C7.7047 21.434 5.53171 21.297 4.34599 21.297C3.58693 21.297 2.13827 21.434 1.022 21.434C0.262942 21.434 0 21.297 0 21.0636C0 20.7591 0.396894 20.5562 0.788826 20.4192C2.43594 19.9777 2.69888 19.6428 2.82787 18.2879C2.92709 16.8976 3.12554 12.833 3.12554 7.48466C3.12554 6.8047 3.22476 4.4705 3.16027 2.98372C3.09577 1.86736 2.8626 1.39037 1.54789 1.08591C0.823555 0.91846 0.595341 0.679964 0.595341 0.441469C0.595341 0.172529 0.992235 0.0355203 1.51812 0.0355203C2.4409 0.0355203 3.79034 0.101489 4.64366 0.101489C6.02783 0.101489 7.11432 0.0355203 7.90315 0.0355203C8.59275 0.0355203 8.95492 0.202975 8.95492 0.441469C8.95492 0.781451 8.62748 0.948906 7.93292 1.08591C6.44952 1.39037 6.3503 1.93333 6.25604 3.35414C6.19154 4.50602 6.12209 8.33208 6.15682 8.90548C6.19154 9.47888 6.29077 9.54992 6.51898 9.54992Z" fill="white"/>
</svg>
