<svg width="18" height="25" viewBox="0 0 18 25" fill="none" xmlns="http://www.w3.org/2000/svg">
<path d="M0.0851431 0.52C1.36514 0.345 2.62014 0.18 3.94514 0V14.15C3.99014 14.16 4.03014 14.17 4.07514 14.185C4.17514 13.97 4.27514 13.76 4.37514 13.545C4.91514 12.375 5.52014 11.24 6.30014 10.205C7.51014 8.595 9.16014 7.695 11.1051 7.32C12.5651 7.035 14.0501 6.935 15.5351 6.945C15.6301 6.945 15.7201 6.96 15.8451 6.975V10.665C15.5951 10.665 15.3501 10.685 15.1051 10.665C13.4051 10.515 11.7101 10.47 10.0301 10.81C9.09014 11 8.19014 11.29 7.40514 11.87C7.42514 11.96 7.42515 12.02 7.45515 12.065C8.63015 14.095 9.81014 16.12 11.2901 17.95C11.7451 18.515 12.2301 19.055 12.8551 19.44C13.0051 19.53 13.1551 19.63 13.3201 19.69C13.8251 19.875 14.2401 19.735 14.5351 19.275C14.9201 18.68 14.9951 17.995 15.0601 17.315C15.1351 16.5 15.1701 15.685 15.2251 14.825H17.8701C17.8851 14.96 17.9151 15.09 17.9101 15.22C17.8901 16.905 17.8101 18.58 17.4051 20.225C17.1851 21.12 16.8901 21.98 16.3651 22.755C15.3551 24.255 13.5351 24.725 11.8151 23.83C11.0401 23.425 10.4201 22.83 9.86014 22.17C8.46515 20.545 7.38014 18.71 6.33514 16.855C5.90514 16.09 5.49014 15.32 5.02014 14.46C4.66514 15.16 4.32514 15.785 4.03014 16.43C3.94514 16.61 3.97015 16.85 3.97015 17.065C3.97015 19.1 3.97015 21.13 3.97015 23.165C3.97015 23.4 3.97015 23.63 3.97015 23.855C3.52515 23.98 1.08514 24.015 0.100142 23.92C-0.0248575 23.475 -0.0398548 1.125 0.0951452 0.525L0.0851431 0.52Z" fill="white"/>
</svg>
