<svg width="38" height="22" viewBox="0 0 38 22" fill="none" xmlns="http://www.w3.org/2000/svg">
<path d="M2.105 14.735V8.42H4.21V2.105H2.105V0H8.42V6.315H10.525V8.42H8.42V10.525H6.315V14.735H4.21V21.05H0V14.735H2.105ZM2.105 2.11V4.215H0V2.11H2.105ZM12.63 4.21V6.315H10.525V4.21H12.63ZM14.735 2.11V4.215H12.63V2.11H14.735ZM16.84 14.735V8.42H18.945V4.21H16.84V2.105H14.735V0H21.05V2.105H23.155V6.315H25.26V8.42H21.05V14.735H18.945V18.945H21.05V21.05H14.735V14.735H16.84ZM23.155 16.84V18.945H21.05V16.84H23.155ZM27.365 4.21V6.315H25.26V4.21H27.365ZM29.47 2.11V4.215H27.365V2.11H29.47ZM31.575 14.735V8.42H33.68V4.21H31.575V2.105H29.47V0H35.785V2.105H37.89V8.42H35.785V14.735H33.68V18.945H35.785V21.05H29.47V14.735H31.575ZM37.89 16.84V18.945H35.785V16.84H37.89Z" fill="white"/>
</svg>
