<svg width="26" height="23" viewBox="0 0 26 23" fill="none" xmlns="http://www.w3.org/2000/svg">
<path d="M24.8189 16.1814C24.6089 16.1214 24.4039 16.0714 24.2089 16.0164C23.7889 15.9064 23.3889 15.8014 23.0089 15.6764C22.0489 15.3564 21.7039 16.0914 21.5939 16.3364C21.2539 17.0714 20.8539 17.8364 20.4039 18.6114C20.0289 19.2564 19.7389 19.1214 19.5839 19.0514C19.4489 18.9864 19.3289 18.9314 19.5639 18.3164C19.9639 17.2714 20.4139 16.2314 20.9039 15.2314C21.2889 14.4414 21.6939 13.6614 22.0989 12.8814C22.7739 11.5714 23.4739 10.2164 24.0889 8.8414C24.5189 7.8714 24.7889 6.68641 24.8389 5.50641C24.8839 4.42141 24.5039 3.39641 23.7589 2.62141C22.9739 1.80141 21.8539 1.33641 20.6789 1.33141C19.0739 1.33141 17.7189 2.0714 16.5739 2.7664C16.2239 2.9764 15.8789 3.19641 15.5339 3.42141L15.5139 3.4314C15.4089 3.2114 15.3139 3.00141 15.1989 2.79641C13.8689 0.361409 11.2689 -0.608595 8.72389 0.386405C7.76889 0.761405 7.03389 1.2214 6.53389 1.7664C5.27889 3.1264 4.42889 4.22641 3.77389 5.33641C1.63389 8.96641 0.408888 13.2464 0.0388881 18.4314C-0.0161119 19.2214 -0.00111338 20.0214 0.0138866 20.7964C0.0188866 21.1514 0.028886 21.5014 0.028886 21.8564V22.3364H3.43889L3.47389 21.8914C3.52389 21.2814 3.56389 20.6814 3.60389 20.0814C3.69389 18.7464 3.77889 17.4864 3.94889 16.2214C4.50389 12.0614 5.78389 8.62641 7.85389 5.71141C8.37389 4.97641 9.13388 4.30641 9.93388 3.87141C10.3939 3.62141 10.8139 3.56141 11.1839 3.69141C11.5939 3.83641 11.9389 4.22141 12.1789 4.80641C12.2289 4.92641 12.2689 5.05141 12.3089 5.17641C12.3689 5.35641 12.4289 5.53641 12.5039 5.70641C12.5839 5.8864 12.5889 5.98641 12.3339 6.31641C12.0589 6.67141 11.7789 7.0214 11.4989 7.3764C10.3489 8.8314 9.16389 10.3364 8.12889 11.9214C6.68389 14.1414 5.91889 16.2814 5.80389 18.4614C5.70389 20.3064 6.32389 21.5364 7.69389 22.2264C9.30889 23.0364 10.9189 22.8564 12.2239 21.7114C12.8589 21.1564 13.4389 20.4314 13.8989 19.6164C15.7639 16.3214 16.6289 12.6164 16.4689 8.5964C16.4239 7.4914 16.7089 6.9014 17.5239 6.4214C17.7639 6.2764 17.9989 6.12641 18.2339 5.97641C18.5939 5.74641 18.9389 5.52641 19.2989 5.33641C19.5589 5.19641 19.8839 5.10141 20.2389 5.05641C20.4839 5.02641 20.8189 5.02641 21.0139 5.21141C21.2039 5.39641 21.2239 5.7264 21.2039 5.9664C21.1689 6.4264 21.0739 6.86641 20.9239 7.24141C20.6389 7.96641 20.2939 8.7314 19.8639 9.5814C19.4939 10.3114 19.1139 11.0314 18.7339 11.7564C17.9589 13.2214 17.1589 14.7364 16.4789 16.2814C16.0839 17.1714 15.9039 18.2664 15.9089 19.7314C15.9089 21.2664 17.0389 22.4664 18.7089 22.7164C18.9189 22.7464 19.1239 22.7614 19.3289 22.7614C20.2139 22.7614 21.0439 22.4664 21.8039 21.8814C23.3189 20.7164 24.3889 19.1064 25.1639 16.8064L25.3289 16.3214L24.8389 16.1864L24.8189 16.1814ZM10.4839 18.2914C10.0889 18.9364 9.67889 19.1664 9.53389 19.0814C9.19389 18.8864 9.19889 18.6564 9.37889 17.9564L9.40389 17.8664C9.99389 15.5364 11.3039 13.5414 12.6239 11.6264C12.4089 14.1114 11.7039 16.3014 10.4839 18.2914Z" fill="white"/>
</svg>
