<svg width="25" height="22" viewBox="0 0 25 22" fill="none" xmlns="http://www.w3.org/2000/svg">
<path d="M5.38572 10.4487V22H0V0.550626C0.191608 0.540229 0.388388 0.524633 0.585174 0.524633C1.98339 0.524633 3.38679 0.540229 4.785 0.514236C5.21483 0.503839 5.43233 0.60781 5.59805 1.04969C5.99162 2.0998 6.45769 3.12393 6.90305 4.15325C6.99109 4.35599 7.11019 4.54314 7.22412 4.76148C7.98019 4.04928 8.66377 3.33187 9.41984 2.70804C12.2732 0.35308 15.4788 -0.619056 19.1245 0.405066C22.5734 1.372 24.8779 4.39238 24.9918 7.9898C25.0488 9.87169 24.8209 11.686 23.8784 13.3599C22.6252 15.5901 20.6832 16.8274 18.2286 17.2797C14.9868 17.8775 12.1438 16.9262 9.61145 14.8987C8.2443 13.807 7.07394 12.5282 6.04858 11.1142C5.87769 10.875 5.68608 10.6515 5.50483 10.4175C5.4634 10.4279 5.42198 10.4435 5.38055 10.4539L5.38572 10.4487ZM19.6061 8.70721C19.5854 4.96423 16.6129 3.20191 13.3348 5.01621C11.8279 5.85319 10.7663 7.16323 9.80305 8.55645C9.74091 8.64483 9.76163 8.85277 9.82377 8.94634C10.787 10.3396 11.8797 11.6184 13.3659 12.4762C15.1732 13.5211 17.3172 13.3184 18.529 11.9927C19.3731 11.0674 19.5802 9.91328 19.6009 8.70721H19.6061Z" fill="white"/>
</svg>
