<svg width="21" height="22" viewBox="0 0 21 22" fill="none" xmlns="http://www.w3.org/2000/svg">
<path d="M20.9834 3.4007C20.9685 1.3788 18.7458 0.0565925 16.8313 0.0308686C13.5941 -0.0102895 6.27944 -0.0102895 3.2014 0.0308686C1.30187 0.0565925 0.0487685 1.39938 0.0139603 3.447C-0.0109027 4.8258 0.00401786 7.73259 0.00899046 8.97763C0.0189357 11.1487 1.05821 12.3835 3.02736 12.579V14.678C2.99752 14.678 2.96271 14.6832 2.93288 14.6883C1.28197 14.8478 0.188004 15.9385 0.0786066 17.5385C0.00401755 18.6447 0.00899259 19.0871 0.0189378 19.7508C0.0189378 20.0646 0.0288803 20.4299 0.0239077 20.9392C0.0239077 21.0936 0.0786066 21.2273 0.202922 21.3457L0.327237 21.5H5.46891V16.7668H8.43755C11.7841 16.7668 14.4942 16.7668 16.523 16.7668C18.7358 16.7617 20.9834 14.4465 20.9934 12.1777C20.9934 10.4439 21.0083 6.11199 20.9934 3.39555L20.9834 3.4007ZM16.0108 4.16726V11.6272H5.4341V4.16726H16.0108Z" fill="white"/>
</svg>
