<svg width="17" height="22" viewBox="0 0 17 22" fill="none" xmlns="http://www.w3.org/2000/svg">
<path d="M15.5282 17.8801C12.3581 16.4128 9.18804 14.9352 6.01796 13.4627H9.99355C10.929 13.4627 11.7969 13.3088 12.6439 13.0009C15.6581 11.8927 17.5134 8.59888 16.8742 5.5C16.1934 2.21129 13.4547 0 10.0611 0C7.9356 0 5.81008 0 3.68977 0H0V21.5485H3.48709V15.8279L16.1986 22V20.2761C16.1986 19.8246 16.1934 19.3937 16.1986 18.9627C16.209 18.4599 15.9855 18.0956 15.523 17.8853L15.5282 17.8801ZM9.95198 3.17584C9.95198 3.17584 9.99875 3.17584 10.0195 3.17584C12.0983 3.17584 13.3507 4.81763 13.4754 6.38246C13.6002 7.91138 12.8362 9.31203 11.537 9.95336C11.1161 10.1586 10.6588 10.2663 10.165 10.2663C8.37733 10.2663 6.58441 10.2715 4.7967 10.2663H3.49229V3.1861C4.05874 3.1861 4.62 3.1861 5.18646 3.19123C6.74552 3.19636 8.36174 3.20149 9.95198 3.17584Z" fill="white"/>
</svg>
