<svg width="22" height="22" viewBox="0 0 22 22" fill="none" xmlns="http://www.w3.org/2000/svg">
<path d="M3.0481 0.0408936H4.74596V21.474H3.0481V0.0408936Z" fill="white"/>
<path d="M1.03833 0.0408936H2.56745V21.474H1.03833V0.0408936Z" fill="white"/>
<path d="M13.798 0.0460205C14.3861 0.240356 14.9128 0.409121 15.4293 0.603456C15.5061 0.63414 15.593 0.777335 15.593 0.869389C15.5981 4.30605 15.593 7.73761 15.593 11.1743C15.593 14.4984 15.593 17.8175 15.5981 21.1416C15.5981 21.249 15.5981 21.3615 15.5981 21.4945C15.2452 21.4945 14.9231 21.5047 14.6009 21.4843C14.5344 21.4843 14.4423 21.3769 14.4219 21.3002C14.1355 20.3285 14.0588 19.3312 14.0434 18.3238C14.0332 17.5055 14.0434 16.6873 14.023 15.869C14.0127 15.5059 13.9463 15.1479 13.9053 14.7899C13.8695 14.4626 13.8031 14.1302 13.798 13.8029C13.7877 12.238 13.7877 10.6731 13.798 9.1133C13.798 8.95476 13.8644 8.77065 13.9616 8.6428C14.4219 8.03934 14.5497 7.34894 14.5497 6.61762C14.5497 5.83005 14.4168 5.07828 13.8644 4.46459C13.8235 4.41856 13.7928 4.35208 13.7928 4.29071C13.7928 2.91502 13.7928 1.53933 13.7928 0.0511347L13.798 0.0460205Z" fill="white"/>
<path d="M16.186 0.189209C16.7333 0.296605 17.2037 0.506282 17.6078 0.843812C17.664 0.889839 17.6896 1.00746 17.6896 1.08929C17.6896 4.3265 17.6947 7.56372 17.6845 10.8009C17.6845 10.939 17.5311 11.0771 17.4339 11.2459C17.8174 11.3788 17.6947 11.7522 17.6947 12.0743C17.6947 15.0814 17.6947 18.0834 17.6947 21.0905V21.4689H16.4008C16.3241 20.8603 16.1809 20.2467 16.1809 19.633C16.1605 15.9764 16.1707 12.3198 16.1758 8.66325C16.1758 8.49448 16.2167 8.31549 16.273 8.15184C16.6156 7.11368 16.6207 6.07552 16.273 5.03736C16.227 4.90951 16.1809 4.77143 16.1809 4.63846C16.1758 3.22698 16.1809 1.81037 16.1809 0.398886C16.1809 0.342631 16.1912 0.29149 16.1963 0.194323L16.186 0.189209Z" fill="white"/>
<path d="M11.7011 0.0255737C12.0897 0.112513 12.4682 0.199453 12.8466 0.281278C13.0665 0.332419 13.1432 0.444929 13.1432 0.690405C13.133 5.76358 13.1381 10.8316 13.1381 15.9048C13.1381 17.6538 13.1381 19.4028 13.1381 21.1519C13.1381 21.2541 13.1381 21.3564 13.1381 21.4485C12.7494 21.5405 12.7085 21.5405 12.6676 21.1825C12.5602 20.2313 12.4579 19.2801 12.4068 18.3289C12.3557 17.4288 12.3915 16.5236 12.3608 15.6235C12.3352 14.8769 12.2431 14.1405 11.7113 13.5421C11.6601 13.4858 11.655 13.3682 11.655 13.2813C11.655 12.0181 11.655 10.7498 11.655 9.48663C11.655 9.39458 11.6755 9.2565 11.7369 9.2207C12.3608 8.83203 12.6062 8.21834 12.7239 7.54328C12.8722 6.679 12.8517 5.81983 12.5347 4.99135C12.3863 4.60268 12.1511 4.27027 11.7931 4.04013C11.7266 3.99922 11.6601 3.90205 11.6601 3.83045C11.655 2.60307 11.6601 1.37569 11.6601 0.148312C11.6601 0.13297 11.6755 0.112514 11.7011 0.0409163V0.0255737Z" fill="white"/>
<path d="M10.9442 7.97284V21.0086C10.9186 21.0138 10.888 21.0189 10.8624 21.024C10.7448 20.5075 10.5709 19.9909 10.53 19.4693C10.4584 18.5181 10.4839 17.5566 10.4481 16.6003C10.4328 16.1196 10.4072 15.6337 10.3203 15.1581C10.1311 14.1353 9.46623 13.5472 8.48944 13.2761C8.4383 13.2608 8.38204 13.2455 8.32579 13.2352C8.27976 13.225 8.23886 13.2148 8.17749 13.2045V9.46104C8.70936 9.3025 9.23609 9.18999 9.73216 8.99566C10.2333 8.80132 10.6169 8.42288 10.9391 7.97795L10.9442 7.97284Z" fill="white"/>
<path d="M10.934 5.30842C10.2896 4.23446 9.28215 3.93273 8.18262 3.79465V0C9.10315 0.061369 10.0083 0.122738 10.934 0.184107V5.30331V5.30842Z" fill="white"/>
<path d="M18.2573 11.6601C18.8454 12.2533 19.1727 12.9233 19.275 13.6853C19.3722 14.4012 19.4182 15.1274 19.4438 15.8485C19.4847 17.0657 19.4745 18.2828 19.5103 19.5C19.5256 20.0625 19.5972 20.6251 19.6381 21.1928C19.6432 21.2848 19.633 21.3717 19.6279 21.4791H18.2624V11.6601H18.2573Z" fill="white"/>
<path d="M0 0.0408936H0.444923V21.474H0V0.0408936Z" fill="white"/>
<path d="M18.2522 10.7549V1.15576C18.3749 1.29896 18.4772 1.39612 18.5488 1.50863C19.2188 2.54679 19.6688 3.65655 19.6381 4.92484C19.6176 5.82492 19.6483 6.73012 19.6279 7.63019C19.6023 8.78086 19.1472 9.76788 18.3954 10.627C18.3596 10.668 18.3187 10.6935 18.2471 10.7498L18.2522 10.7549Z" fill="white"/>
<path d="M7.53833 3.71795H5.40063V0.0511475H7.53833V3.71795Z" fill="white"/>
<path d="M7.53318 13.0409H5.39038V9.50195H7.53318V13.0409Z" fill="white"/>
<path d="M20.2773 9.63495V2.45477C20.2773 2.45477 20.3234 2.45477 20.3489 2.45477C21.07 4.84817 21.1314 7.24667 20.3643 9.64518C20.3336 9.64518 20.308 9.64006 20.2773 9.63495Z" fill="white"/>
<path d="M21.0445 21.4791H20.2825V12.9591C20.3132 12.9591 20.3387 12.954 20.3694 12.9489C20.4359 13.4654 20.5382 13.9819 20.5535 14.5035C20.5944 15.8588 20.5893 17.2191 20.62 18.5795C20.6302 19.1164 20.6763 19.6534 20.7325 20.1904C20.753 20.3694 20.8246 20.5535 20.9064 20.712C21.0803 21.0445 21.1007 21.0751 21.0394 21.4791H21.0445Z" fill="white"/>
</svg>
