<svg width="21" height="22" viewBox="0 0 21 22" fill="none" xmlns="http://www.w3.org/2000/svg">
<path d="M19.4055 16.5828C17.954 15.8954 15.898 15.198 13.9064 14.5257C12.8115 14.1544 11.6968 13.7781 10.6812 13.4068H14.2135C15.1152 13.4068 15.9525 13.2562 16.765 12.9502C19.6929 11.8463 21.5012 8.55986 20.8769 5.46908C20.218 2.20269 17.5626 0 14.273 0C12.6976 0 7.9366 0 5.22171 0H0V20.8879H4.0872V15.7901L20.2775 21.5V19.2321C20.2775 18.8206 20.2725 18.4243 20.2775 18.0329C20.2923 17.3806 19.9802 16.8688 19.3956 16.5879L19.4055 16.5828ZM15.3926 9.25228C15.0805 9.40782 14.7337 9.4881 14.3671 9.4881C12.7521 9.4881 6.41567 9.4881 4.80556 9.4881H4.10206V3.89358H4.74612C6.45531 3.89358 9.49717 3.89358 9.87864 3.89358C11.2014 3.8986 12.7025 3.90864 14.1888 3.88355H14.2383C15.8286 3.88355 16.7848 5.18308 16.8839 6.40735C16.978 7.6266 16.3934 8.73547 15.3926 9.24224V9.25228Z" fill="white"/>
</svg>
