<svg width="18" height="22" viewBox="0 0 18 22" fill="none" xmlns="http://www.w3.org/2000/svg">
<path d="M8.80548 13.0665H4.2817V21.5H0V0H10.2882C11.7558 0.0310245 12.8905 0.211989 13.6823 0.553259C14.4741 0.894529 15.1448 1.39609 15.6945 2.05795C16.1484 2.60088 16.5115 3.20586 16.7738 3.86772C17.036 4.52957 17.1722 5.2845 17.1722 6.12733C17.1722 7.14597 16.92 8.15428 16.4157 9.14189C15.9114 10.1295 15.0843 10.8276 13.9244 11.236C14.8927 11.6342 15.5785 12.203 15.982 12.9372C16.3854 13.6715 16.5872 14.7935 16.5872 16.2982V17.7409C16.5872 18.7233 16.6275 19.3903 16.7032 19.7368C16.8192 20.29 17.0814 20.6985 17.5 20.9622V21.5H12.6787C12.5475 21.0243 12.4517 20.6416 12.3963 20.3469C12.2803 19.7419 12.2197 19.1266 12.2097 18.4958L12.1794 16.4999C12.1592 15.1296 11.9171 14.2144 11.4481 13.7594C10.9791 13.3043 10.0965 13.0717 8.81052 13.0717L8.80548 13.0665ZM11.4683 9.15741C12.3408 8.74892 12.7795 7.94228 12.7795 6.7375C12.7795 5.43446 12.3559 4.5606 11.5137 4.11074C11.0396 3.85737 10.3285 3.73327 9.3804 3.73327H4.28675V9.50901H9.25431C10.2428 9.50901 10.9791 9.39009 11.4733 9.15741H11.4683Z" fill="white"/>
</svg>
