<svg width="18" height="26" viewBox="0 0 18 26" fill="none" xmlns="http://www.w3.org/2000/svg">
<path d="M17.655 25.315H17.135C14.775 25.315 12.41 25.315 10.05 25.305C9.195 25.305 8.365 25.14 7.58 24.825C6.105 24.235 5.12999 23.145 4.50999 21.395C4.02999 20.04 3.81499 18.53 3.80499 16.5C3.80499 15.95 3.80499 14.035 3.80499 12.795V10.41H0V8.055C1.585 8.115 7.105 9.08 7.105 0H10.235C11.165 6.705 6.22499 8.14 6.22499 8.14C8.57999 8.005 11.005 8.02 13.35 8.035C14.435 8.045 15.55 8.05 16.665 8.04V10.395H9.33499V12.595C9.33499 13.975 9.33499 16.705 9.33499 17.05V17.505C9.33499 17.875 9.33 18.24 9.34 18.61C9.41 20.755 10.61 22.935 12.77 22.94C14.135 22.94 15.5 22.94 16.865 22.94H17.665V25.32L17.655 25.315Z" fill="white"/>
</svg>
